<svg width="616" height="171" viewBox="0 0 616 171" fill="none" xmlns="http://www.w3.org/2000/svg">
<path fill-rule="evenodd" clip-rule="evenodd" d="M17.2839 147.501C17.6271 147.677 17.9583 147.876 18.2753 148.096C18.5699 148.364 18.7804 148.713 18.8811 149.098C18.9952 149.486 19.0617 149.885 19.0794 150.288V164.863C19.0794 164.963 19.0794 165.161 18.9802 165.161C18.9395 165.199 18.8907 165.228 18.8373 165.246C18.7839 165.263 18.7274 165.268 18.6718 165.26H15.0808C15.027 165.267 14.9722 165.262 14.9208 165.245C14.8694 165.227 14.8227 165.198 14.7843 165.16C14.7459 165.122 14.7169 165.075 14.6995 165.023C14.6822 164.972 14.6769 164.917 14.6842 164.863V151.643H11.7872V164.863C11.7872 164.963 11.7872 165.161 11.688 165.161C11.649 165.199 11.602 165.227 11.5505 165.244C11.4991 165.261 11.4444 165.267 11.3906 165.26H8.08597C7.98683 165.26 7.78856 165.26 7.78856 165.161C7.75089 165.122 7.72243 165.075 7.70528 165.023C7.68812 164.972 7.6827 164.917 7.68942 164.863V151.643H4.80337V164.863C4.80813 164.93 4.79865 164.997 4.77558 165.06C4.7525 165.123 4.71634 165.18 4.66949 165.228C4.62265 165.276 4.56617 165.314 4.50381 165.338C4.44144 165.363 4.37459 165.374 4.30768 165.37H0.705629C0.638718 165.374 0.571871 165.363 0.509502 165.338C0.447133 165.314 0.39066 165.276 0.343813 165.228C0.296966 165.18 0.26081 165.123 0.237732 165.06C0.214655 164.997 0.20518 164.93 0.209935 164.863V147.798C0.20518 147.732 0.214655 147.665 0.237732 147.602C0.26081 147.539 0.296966 147.481 0.343813 147.434C0.39066 147.386 0.447133 147.348 0.509502 147.324C0.571871 147.299 0.638718 147.288 0.705629 147.292H16.2815C16.4537 147.252 16.6326 147.25 16.8056 147.286C16.9787 147.322 17.1418 147.396 17.2839 147.501V147.501Z" fill="#242425"/>
<path fill-rule="evenodd" clip-rule="evenodd" d="M35.3489 147.193C35.752 147.21 36.1515 147.277 36.5385 147.391C36.8847 147.572 37.2195 147.775 37.541 147.997C37.8298 148.264 38.0362 148.608 38.1358 148.988C38.2578 149.378 38.3282 149.781 38.3451 150.189V164.764C38.3451 164.864 38.3451 165.062 38.2459 165.062C38.2044 165.099 38.1555 165.127 38.1023 165.144C38.0492 165.161 37.993 165.167 37.9375 165.161H34.3465C34.2473 165.161 34.0491 165.161 34.0491 165.062C34.0114 165.023 33.9829 164.976 33.9658 164.924C33.9486 164.873 33.9432 164.818 33.9499 164.764V160.225C33.9499 160.126 33.9499 159.928 33.8508 159.928C33.8117 159.89 33.7648 159.862 33.7133 159.845C33.6618 159.828 33.6072 159.822 33.5534 159.829H28.4532C28.3541 159.829 28.1558 159.829 28.1558 159.928C28.1181 159.967 28.0897 160.014 28.0725 160.065C28.0554 160.117 28.0499 160.172 28.0567 160.225V164.819C28.0598 164.885 28.0491 164.951 28.0253 165.013C28.0015 165.074 27.9651 165.13 27.9185 165.177C27.8718 165.224 27.8159 165.26 27.7543 165.284C27.6927 165.308 27.6269 165.318 27.561 165.315H23.9699C23.9031 165.32 23.836 165.311 23.7731 165.287C23.7102 165.264 23.653 165.228 23.6051 165.181C23.5572 165.134 23.5198 165.078 23.4953 165.016C23.4709 164.953 23.4599 164.886 23.4632 164.819V150.189C23.4801 149.781 23.5505 149.378 23.6725 148.988C23.8486 148.645 24.0473 148.314 24.2673 147.997C24.5407 147.708 24.8871 147.499 25.2697 147.391C25.6443 147.229 26.0526 147.161 26.4594 147.193H35.3489ZM33.7516 155.819V151.324H27.6601V155.819H33.7516Z" fill="#242425"/>
<path fill-rule="evenodd" clip-rule="evenodd" d="M54.6152 147.391C54.6525 147.432 54.6806 147.481 54.6977 147.534C54.7147 147.588 54.7204 147.644 54.7143 147.699V162.275C54.6967 162.678 54.6301 163.077 54.516 163.464C54.3347 163.811 54.1324 164.145 53.9102 164.467C53.6433 164.756 53.2992 164.962 52.9188 165.062C52.5401 165.223 52.1284 165.291 51.7181 165.26H43.9302C43.5236 165.242 43.1205 165.175 42.7295 165.062C42.3863 164.886 42.0551 164.687 41.7381 164.467C41.4399 164.201 41.2287 163.852 41.1323 163.464C40.9706 163.09 40.9025 162.681 40.934 162.275V156.766C40.9309 156.7 40.9415 156.634 40.9653 156.573C40.9891 156.511 41.0255 156.455 41.0722 156.409C41.1189 156.362 41.1748 156.326 41.2364 156.302C41.2979 156.278 41.3638 156.267 41.4297 156.27H45.0317C45.0977 156.267 45.1635 156.278 45.2251 156.302C45.2867 156.326 45.3426 156.362 45.3892 156.409C45.4359 156.455 45.4723 156.511 45.4961 156.573C45.5199 156.634 45.5306 156.7 45.5274 156.766V160.468C45.5202 160.522 45.5254 160.576 45.5428 160.628C45.5601 160.679 45.5891 160.726 45.6275 160.764C45.6659 160.803 45.7126 160.832 45.764 160.849C45.8155 160.866 45.8702 160.872 45.924 160.864H49.5811C49.6803 160.864 49.8785 160.864 49.8785 160.765C49.9162 160.726 49.9447 160.679 49.9618 160.628C49.979 160.576 49.9844 160.522 49.9777 160.468V147.798C49.9777 147.699 49.9777 147.501 50.0768 147.501C50.1138 147.46 50.1601 147.428 50.2119 147.409C50.2638 147.39 50.3194 147.384 50.3742 147.391H53.9873C54.0703 147.316 54.1783 147.274 54.2902 147.274C54.4021 147.274 54.5101 147.316 54.5931 147.391H54.6152Z" fill="#242425"/>
<path fill-rule="evenodd" clip-rule="evenodd" d="M70.8847 147.193C71.2879 147.211 71.6874 147.277 72.0744 147.391C72.4206 147.573 72.7554 147.775 73.0768 147.997C73.3657 148.264 73.5721 148.608 73.6717 148.989C73.7849 149.38 73.8515 149.783 73.8699 150.19V162.176C73.8523 162.579 73.7857 162.979 73.6717 163.366C73.4979 163.714 73.2991 164.049 73.0768 164.368C72.8077 164.66 72.4593 164.867 72.0744 164.963C71.6999 165.125 71.2915 165.193 70.8847 165.161H61.797C61.3904 165.143 60.9873 165.076 60.5964 164.963C60.2531 164.787 59.9219 164.588 59.605 164.368C59.3067 164.103 59.0955 163.753 58.9991 163.366C58.8374 162.991 58.7693 162.583 58.8008 162.176V150.19C58.8193 149.783 58.8859 149.38 58.9991 148.989C59.1409 148.625 59.3461 148.289 59.605 147.997C59.8753 147.71 60.2176 147.501 60.5964 147.391C60.975 147.23 61.3867 147.162 61.797 147.193H70.8847ZM69.2875 151.6H63.196V160.887H69.2875V151.6V151.6Z" fill="#242425"/>
<path fill-rule="evenodd" clip-rule="evenodd" d="M93.6426 164.864C93.6654 164.881 93.6839 164.904 93.6966 164.929C93.7094 164.955 93.716 164.984 93.716 165.012C93.716 165.041 93.7094 165.07 93.6966 165.095C93.6839 165.121 93.6654 165.144 93.6426 165.161C93.5434 165.26 93.5434 165.26 93.3341 165.26H89.2364C89.0967 165.275 88.9562 165.24 88.8398 165.161L88.5314 164.864L85.8437 159.972C85.8437 159.873 85.7445 159.873 85.6454 159.873H82.5611C82.4619 159.873 82.4619 159.873 82.4619 159.972V164.765C82.4652 164.831 82.4543 164.898 82.4298 164.961C82.4054 165.023 82.368 165.08 82.3201 165.126C82.2722 165.173 82.2149 165.209 82.152 165.232C82.0891 165.256 82.022 165.265 81.9552 165.26H78.3642C78.2983 165.263 78.2324 165.253 78.1708 165.229C78.1093 165.205 78.0534 165.169 78.0067 165.122C77.96 165.075 77.9236 165.019 77.8998 164.958C77.876 164.896 77.8654 164.83 77.8685 164.765V147.699C77.8637 147.633 77.8732 147.566 77.8963 147.503C77.9194 147.44 77.9555 147.382 78.0024 147.335C78.0492 147.287 78.1057 147.249 78.1681 147.225C78.2304 147.2 78.2973 147.189 78.3642 147.193H90.0405C90.4474 147.209 90.8506 147.276 91.2412 147.391C91.586 147.575 91.9206 147.777 92.2436 147.997C92.5325 148.264 92.7389 148.608 92.8384 148.988C92.9994 149.367 93.0674 149.779 93.0367 150.189V156.976C93.0391 157.623 92.8303 158.253 92.4419 158.771C92.0619 159.278 91.5407 159.661 90.9438 159.873H90.8446C90.7455 159.873 90.7455 159.972 90.7455 160.071V160.226L93.6426 164.864ZM88.5424 151.412H82.3628V155.819H88.5424V151.412Z" fill="#242425"/>
<path fill-rule="evenodd" clip-rule="evenodd" d="M117.877 160.876C117.933 160.868 117.989 160.873 118.043 160.89C118.096 160.907 118.145 160.936 118.185 160.975C118.223 161.014 118.252 161.061 118.269 161.112C118.286 161.164 118.291 161.218 118.285 161.272V164.632C118.285 164.732 118.285 164.93 118.185 164.93C118.145 164.968 118.096 164.997 118.043 165.015C117.989 165.032 117.933 165.037 117.877 165.029H106.862C106.795 165.034 106.728 165.024 106.665 165.001C106.602 164.978 106.545 164.942 106.497 164.895C106.449 164.848 106.412 164.792 106.387 164.729C106.363 164.667 106.352 164.6 106.355 164.533V147.501C106.352 147.434 106.363 147.368 106.387 147.305C106.412 147.243 106.449 147.186 106.497 147.139C106.545 147.093 106.602 147.056 106.665 147.033C106.728 147.01 106.795 147.001 106.862 147.006H110.453C110.52 147.002 110.586 147.013 110.649 147.038C110.711 147.062 110.768 147.1 110.814 147.147C110.861 147.195 110.897 147.253 110.921 147.316C110.944 147.378 110.953 147.446 110.948 147.512V160.226C110.942 160.281 110.948 160.337 110.965 160.391C110.982 160.444 111.01 160.493 111.048 160.534C111.087 160.572 111.134 160.6 111.185 160.617C111.236 160.635 111.291 160.64 111.345 160.633H117.954V160.931L117.877 160.876Z" fill="#242425"/>
<path fill-rule="evenodd" clip-rule="evenodd" d="M134.565 147.391C134.603 147.432 134.631 147.481 134.648 147.534C134.665 147.588 134.671 147.644 134.664 147.699V151.004C134.672 151.058 134.666 151.113 134.649 151.164C134.632 151.216 134.603 151.262 134.564 151.301C134.526 151.339 134.479 151.368 134.428 151.386C134.376 151.403 134.322 151.408 134.268 151.401H125.676C125.577 151.401 125.577 151.401 125.577 151.5V154.298C125.577 154.397 125.577 154.397 125.676 154.397H133.067C133.121 154.39 133.176 154.395 133.227 154.413C133.279 154.43 133.325 154.459 133.364 154.497C133.402 154.536 133.431 154.583 133.448 154.634C133.466 154.685 133.471 154.74 133.464 154.794V157.394C133.464 157.493 133.464 157.691 133.365 157.691C133.326 157.729 133.279 157.758 133.227 157.775C133.176 157.792 133.121 157.797 133.067 157.791H125.676C125.577 157.791 125.577 157.791 125.577 157.89V159.19V160.688C125.577 160.787 125.577 160.787 125.676 160.787H134.268C134.367 160.787 134.565 160.787 134.565 160.886C134.603 160.925 134.631 160.972 134.649 161.024C134.666 161.075 134.671 161.13 134.664 161.184V164.379C134.664 164.478 134.664 164.676 134.565 164.676C134.526 164.714 134.479 164.742 134.428 164.759C134.376 164.777 134.322 164.782 134.268 164.775H121.49C121.423 164.78 121.356 164.771 121.293 164.747C121.23 164.724 121.173 164.688 121.125 164.641C121.077 164.595 121.04 164.538 121.015 164.476C120.991 164.413 120.98 164.346 120.983 164.279V147.203C120.983 147.104 120.983 146.906 121.082 146.906C121.124 146.869 121.173 146.841 121.226 146.823C121.279 146.806 121.335 146.801 121.391 146.807H134.158C134.257 147.028 134.395 147.229 134.565 147.402V147.391Z" fill="#242425"/>
<path fill-rule="evenodd" clip-rule="evenodd" d="M150.923 147.193C151.329 147.211 151.732 147.278 152.123 147.391C152.464 147.575 152.795 147.777 153.115 147.997C153.402 148.268 153.611 148.61 153.72 148.989C153.834 149.38 153.9 149.783 153.919 150.19V164.765C153.919 164.864 153.919 165.062 153.82 165.062C153.778 165.1 153.73 165.129 153.676 165.146C153.623 165.163 153.567 165.168 153.511 165.161H149.821C149.722 165.161 149.524 165.161 149.524 165.062C149.486 165.023 149.457 164.976 149.44 164.925C149.423 164.873 149.418 164.819 149.424 164.765V160.226C149.424 160.127 149.424 159.928 149.325 159.928C149.286 159.891 149.239 159.862 149.188 159.845C149.136 159.828 149.082 159.823 149.028 159.829H143.829C143.729 159.829 143.531 159.829 143.531 159.928C143.493 159.967 143.465 160.014 143.448 160.066C143.431 160.117 143.425 160.172 143.432 160.226V164.82C143.435 164.886 143.424 164.952 143.401 165.013C143.377 165.075 143.34 165.131 143.294 165.177C143.247 165.224 143.191 165.26 143.13 165.284C143.068 165.308 143.002 165.319 142.936 165.316H139.356C139.289 165.32 139.222 165.311 139.159 165.288C139.097 165.265 139.039 165.229 138.991 165.182C138.944 165.135 138.906 165.078 138.882 165.016C138.857 164.954 138.846 164.887 138.85 164.82V150.19C138.866 149.782 138.937 149.378 139.059 148.989C139.235 148.645 139.434 148.314 139.654 147.997C139.924 147.71 140.266 147.501 140.645 147.391C141.024 147.23 141.435 147.162 141.846 147.193H150.923ZM149.325 155.786V151.291H143.212V155.819L149.325 155.786Z" fill="#242425"/>
<path fill-rule="evenodd" clip-rule="evenodd" d="M172.954 155.576C172.991 155.618 173.019 155.667 173.036 155.72C173.053 155.773 173.059 155.829 173.053 155.885V162.274C173.035 162.678 172.969 163.077 172.854 163.464C172.681 163.812 172.482 164.147 172.26 164.467C171.991 164.758 171.642 164.965 171.257 165.062C170.883 165.223 170.474 165.292 170.068 165.26H160.98C160.573 165.242 160.17 165.175 159.779 165.062C159.436 164.886 159.105 164.687 158.788 164.467C158.489 164.201 158.278 163.852 158.182 163.464C158.02 163.09 157.952 162.681 157.984 162.274V150.31C158.001 149.907 158.068 149.508 158.182 149.12C158.323 148.753 158.528 148.413 158.788 148.118C159.055 147.829 159.399 147.623 159.779 147.523C160.155 147.353 160.568 147.281 160.98 147.314H171.665C171.764 147.314 171.962 147.314 171.962 147.413C172 147.454 172.028 147.503 172.045 147.556C172.062 147.61 172.067 147.666 172.061 147.721V151.114C172.061 151.214 172.061 151.412 171.962 151.412C171.923 151.45 171.876 151.478 171.825 151.495C171.773 151.512 171.719 151.518 171.665 151.511H163.073C162.974 151.511 162.775 151.511 162.775 151.61C162.738 151.649 162.709 151.696 162.692 151.748C162.675 151.799 162.669 151.854 162.676 151.908V160.225C162.669 160.281 162.675 160.337 162.692 160.39C162.709 160.444 162.737 160.493 162.775 160.534C162.814 160.571 162.861 160.6 162.913 160.617C162.964 160.634 163.019 160.64 163.073 160.633H168.162C168.218 160.643 168.275 160.639 168.329 160.622C168.382 160.605 168.431 160.575 168.471 160.535C168.511 160.495 168.541 160.446 168.558 160.392C168.575 160.338 168.579 160.281 168.569 160.225V155.819C168.569 155.719 168.569 155.51 168.669 155.51C168.708 155.472 168.755 155.444 168.806 155.427C168.858 155.41 168.912 155.404 168.966 155.411H172.557C172.706 155.436 172.844 155.505 172.954 155.609V155.576Z" fill="#242425"/>
<path fill-rule="evenodd" clip-rule="evenodd" d="M191.955 147.391C191.993 147.433 192.021 147.482 192.038 147.535C192.055 147.588 192.06 147.644 192.054 147.7V162.275C192.037 162.678 191.97 163.078 191.856 163.465C191.682 163.813 191.483 164.148 191.261 164.467C190.989 164.755 190.642 164.961 190.259 165.062C189.881 165.225 189.469 165.293 189.058 165.26H179.981C179.575 165.244 179.171 165.177 178.781 165.062C178.435 164.883 178.101 164.685 177.778 164.467C177.487 164.198 177.28 163.85 177.183 163.465C177.022 163.09 176.954 162.682 176.985 162.275V147.7C176.98 147.633 176.99 147.566 177.013 147.503C177.036 147.44 177.072 147.383 177.119 147.335C177.166 147.287 177.222 147.249 177.285 147.225C177.347 147.201 177.414 147.19 177.481 147.193H181.072C181.14 147.188 181.208 147.198 181.271 147.221C181.335 147.245 181.393 147.282 181.441 147.33C181.489 147.378 181.526 147.436 181.55 147.5C181.574 147.564 181.584 147.632 181.579 147.7V160.369C181.571 160.425 181.576 160.481 181.593 160.534C181.61 160.588 181.639 160.637 181.678 160.677C181.717 160.715 181.764 160.744 181.815 160.761C181.867 160.778 181.921 160.783 181.975 160.777H187.064C187.118 160.783 187.173 160.778 187.224 160.761C187.276 160.744 187.323 160.715 187.362 160.677C187.4 160.637 187.429 160.588 187.446 160.534C187.464 160.481 187.469 160.425 187.461 160.369V147.7C187.461 147.601 187.461 147.391 187.56 147.391C187.601 147.353 187.65 147.324 187.703 147.307C187.756 147.289 187.813 147.284 187.868 147.292H191.46C191.541 147.248 191.635 147.234 191.725 147.252C191.816 147.27 191.897 147.32 191.955 147.391V147.391Z" fill="#242425"/>
<path fill-rule="evenodd" clip-rule="evenodd" d="M209.823 147.391C209.86 147.432 209.888 147.481 209.905 147.535C209.922 147.588 209.928 147.644 209.922 147.699V151.004C209.929 151.058 209.924 151.113 209.907 151.164C209.889 151.216 209.86 151.263 209.822 151.301C209.783 151.339 209.737 151.368 209.685 151.386C209.634 151.403 209.579 151.408 209.525 151.401H200.944C200.845 151.401 200.845 151.401 200.845 151.5V154.298C200.845 154.398 200.845 154.398 200.944 154.398H208.325C208.378 154.39 208.433 154.396 208.485 154.413C208.536 154.43 208.583 154.459 208.621 154.498C208.66 154.536 208.689 154.583 208.706 154.634C208.723 154.686 208.728 154.74 208.721 154.794V157.394C208.721 157.493 208.721 157.692 208.622 157.692C208.583 157.729 208.536 157.758 208.485 157.775C208.433 157.792 208.378 157.797 208.325 157.791H200.944C200.845 157.791 200.845 157.791 200.845 157.89V159.19V160.688C200.845 160.787 200.845 160.787 200.944 160.787H209.525C209.624 160.787 209.823 160.787 209.823 160.886C209.86 160.925 209.889 160.972 209.906 161.024C209.923 161.075 209.929 161.13 209.922 161.184V164.379C209.922 164.478 209.922 164.676 209.823 164.676C209.784 164.714 209.737 164.742 209.685 164.76C209.634 164.777 209.579 164.782 209.525 164.775H196.747C196.682 164.779 196.616 164.768 196.554 164.744C196.493 164.72 196.437 164.684 196.39 164.637C196.343 164.59 196.307 164.535 196.283 164.473C196.259 164.411 196.249 164.346 196.252 164.28V147.204C196.252 147.104 196.252 146.906 196.351 146.906C196.39 146.868 196.437 146.84 196.488 146.823C196.54 146.806 196.594 146.8 196.648 146.807H209.426C209.519 147.029 209.654 147.231 209.823 147.402V147.391Z" fill="#242425"/>
<path fill-rule="evenodd" clip-rule="evenodd" d="M237.471 147.192C237.57 147.192 237.768 147.192 237.768 147.292C237.806 147.333 237.835 147.382 237.852 147.435C237.869 147.488 237.874 147.545 237.868 147.6V164.632C237.868 164.731 237.868 164.93 237.768 164.93C237.729 164.967 237.682 164.996 237.631 165.013C237.579 165.03 237.525 165.035 237.471 165.029H233.88C233.781 165.029 233.583 165.029 233.583 164.93C233.554 164.886 233.536 164.837 233.528 164.786C233.521 164.734 233.524 164.682 233.538 164.632V158.639C233.545 158.585 233.54 158.53 233.523 158.479C233.505 158.427 233.477 158.381 233.439 158.341C233.398 158.304 233.349 158.276 233.296 158.259C233.243 158.242 233.186 158.236 233.131 158.242H228.031C227.932 158.242 227.733 158.242 227.733 158.341C227.696 158.381 227.667 158.427 227.65 158.479C227.633 158.53 227.627 158.585 227.634 158.639V164.632C227.637 164.698 227.627 164.764 227.603 164.825C227.579 164.887 227.543 164.943 227.496 164.99C227.449 165.036 227.393 165.073 227.332 165.096C227.27 165.12 227.204 165.131 227.138 165.128H223.536C223.471 165.131 223.405 165.12 223.343 165.096C223.282 165.073 223.226 165.036 223.179 164.99C223.132 164.943 223.096 164.887 223.072 164.825C223.048 164.764 223.038 164.698 223.041 164.632V147.6C223.036 147.533 223.045 147.466 223.069 147.403C223.092 147.34 223.128 147.283 223.175 147.235C223.221 147.187 223.278 147.15 223.34 147.125C223.403 147.101 223.47 147.09 223.536 147.093H227.138C227.205 147.09 227.272 147.101 227.335 147.125C227.397 147.15 227.453 147.187 227.5 147.235C227.547 147.283 227.583 147.34 227.606 147.403C227.629 147.466 227.639 147.533 227.634 147.6V153.384C227.631 153.45 227.642 153.516 227.666 153.577C227.689 153.639 227.726 153.695 227.772 153.741C227.819 153.788 227.875 153.825 227.937 153.848C227.998 153.872 228.064 153.883 228.13 153.88H233.219C233.275 153.887 233.331 153.881 233.384 153.864C233.437 153.847 233.486 153.818 233.527 153.781C233.565 153.741 233.594 153.695 233.611 153.643C233.628 153.592 233.633 153.537 233.627 153.483V147.699C233.627 147.6 233.627 147.391 233.726 147.391C233.765 147.353 233.812 147.325 233.863 147.308C233.915 147.29 233.969 147.285 234.023 147.292H237.515V147.192H237.471Z" fill="#242425"/>
<path fill-rule="evenodd" clip-rule="evenodd" d="M254.138 147.193C254.545 147.209 254.948 147.276 255.338 147.391C255.735 147.6 256.032 147.799 256.341 147.997C256.63 148.264 256.836 148.608 256.936 148.988C257.049 149.379 257.115 149.782 257.134 150.189V164.764C257.134 164.864 257.134 165.062 257.035 165.062C256.996 165.1 256.949 165.128 256.897 165.145C256.846 165.162 256.791 165.168 256.737 165.161H253.146C253.047 165.161 252.838 165.161 252.838 165.062C252.8 165.023 252.772 164.976 252.755 164.924C252.737 164.873 252.732 164.818 252.739 164.764V160.225C252.739 160.126 252.739 159.928 252.64 159.928C252.601 159.89 252.554 159.862 252.502 159.845C252.451 159.828 252.396 159.822 252.342 159.829H247.253C247.154 159.829 246.956 159.829 246.956 159.928C246.918 159.967 246.89 160.014 246.872 160.065C246.855 160.117 246.85 160.172 246.857 160.225V164.819C246.86 164.886 246.849 164.953 246.824 165.016C246.8 165.078 246.763 165.134 246.715 165.181C246.667 165.228 246.609 165.264 246.547 165.287C246.484 165.311 246.417 165.32 246.35 165.315H242.759C242.693 165.318 242.627 165.308 242.565 165.284C242.504 165.26 242.448 165.224 242.401 165.177C242.355 165.13 242.318 165.074 242.294 165.013C242.271 164.951 242.26 164.885 242.263 164.819V150.189C242.282 149.782 242.348 149.379 242.461 148.988C242.638 148.645 242.836 148.314 243.056 147.997C243.331 147.71 243.677 147.501 244.059 147.391C244.437 147.229 244.849 147.161 245.259 147.193H254.138ZM252.64 155.786V151.291H246.559V155.819L252.64 155.786Z" fill="#242425"/>
<path fill-rule="evenodd" clip-rule="evenodd" d="M265.814 151.688C265.777 151.727 265.748 151.774 265.731 151.825C265.714 151.877 265.709 151.931 265.715 151.985V160.369C265.708 160.424 265.713 160.481 265.73 160.534C265.747 160.588 265.776 160.637 265.814 160.677C265.856 160.715 265.905 160.743 265.958 160.76C266.011 160.777 266.067 160.783 266.123 160.776H274.406C274.506 160.776 274.704 160.776 274.704 160.876C274.741 160.915 274.77 160.962 274.787 161.013C274.804 161.065 274.81 161.119 274.803 161.173V164.566C274.803 164.665 274.803 164.864 274.704 164.864C274.665 164.901 274.618 164.93 274.566 164.947C274.515 164.964 274.46 164.97 274.406 164.963H264.118C263.715 164.945 263.315 164.879 262.928 164.765C262.58 164.591 262.245 164.392 261.926 164.17C261.637 163.899 261.431 163.551 261.331 163.167C261.168 162.789 261.1 162.377 261.133 161.966V149.848C261.151 149.441 261.218 149.038 261.331 148.647C261.507 148.304 261.706 147.972 261.926 147.655C262.191 147.357 262.541 147.146 262.928 147.05C263.303 146.888 263.711 146.82 264.118 146.851H274.406C274.506 146.851 274.704 146.851 274.704 146.95C274.741 146.989 274.77 147.036 274.787 147.088C274.804 147.139 274.81 147.194 274.803 147.248V150.641C274.803 150.751 274.803 150.95 274.704 150.95C274.665 150.987 274.618 151.016 274.566 151.033C274.515 151.05 274.46 151.055 274.406 151.049H266.123C266.024 151.544 265.925 151.644 265.814 151.644V151.688Z" fill="#242425"/>
<path fill-rule="evenodd" clip-rule="evenodd" d="M289.276 154.783C289.177 154.882 289.177 154.882 289.276 154.982L295.269 164.897C295.292 164.914 295.31 164.937 295.323 164.962C295.336 164.988 295.342 165.017 295.342 165.045C295.342 165.074 295.336 165.103 295.323 165.128C295.31 165.154 295.292 165.177 295.269 165.194C295.17 165.293 295.17 165.293 294.96 165.293H290.675C290.536 165.308 290.395 165.273 290.279 165.194L289.97 164.897L286.082 157.912C285.983 157.813 285.983 157.813 285.983 157.912L283.89 160.204C283.827 160.251 283.775 160.313 283.739 160.383C283.703 160.454 283.683 160.532 283.681 160.611C283.601 160.763 283.566 160.936 283.582 161.107V164.897C283.586 164.964 283.577 165.031 283.554 165.093C283.531 165.156 283.494 165.214 283.448 165.262C283.401 165.309 283.344 165.347 283.282 165.371C283.22 165.396 283.153 165.407 283.086 165.403H279.594C279.527 165.407 279.46 165.396 279.398 165.371C279.335 165.347 279.279 165.309 279.232 165.262C279.185 165.214 279.149 165.156 279.126 165.093C279.103 165.031 279.093 164.964 279.098 164.897V147.799C279.093 147.732 279.103 147.665 279.126 147.602C279.149 147.539 279.185 147.482 279.232 147.434C279.279 147.386 279.335 147.348 279.398 147.324C279.46 147.299 279.527 147.289 279.594 147.292H283.185C283.252 147.289 283.319 147.299 283.381 147.324C283.443 147.348 283.5 147.386 283.547 147.434C283.594 147.482 283.63 147.539 283.653 147.602C283.676 147.665 283.685 147.732 283.681 147.799V155.51L290.378 147.733C290.493 147.609 290.627 147.505 290.775 147.424C290.895 147.355 291.032 147.321 291.171 147.325H295.467C295.566 147.325 295.665 147.325 295.665 147.424C295.673 147.48 295.668 147.536 295.651 147.59C295.634 147.643 295.605 147.692 295.566 147.733L289.276 154.816V154.783Z" fill="#242425"/>
<path fill-rule="evenodd" clip-rule="evenodd" d="M303.145 164.764C303.148 164.83 303.138 164.896 303.114 164.958C303.09 165.019 303.054 165.075 303.007 165.122C302.96 165.169 302.904 165.205 302.843 165.229C302.781 165.253 302.715 165.263 302.649 165.26H299.058C298.992 165.263 298.927 165.253 298.865 165.229C298.803 165.205 298.748 165.169 298.701 165.122C298.654 165.075 298.618 165.019 298.594 164.958C298.57 164.896 298.56 164.83 298.563 164.764V147.699C298.558 147.632 298.567 147.565 298.591 147.502C298.614 147.44 298.65 147.382 298.697 147.334C298.743 147.286 298.8 147.249 298.862 147.225C298.925 147.2 298.992 147.189 299.058 147.192H302.649C302.716 147.189 302.783 147.2 302.846 147.225C302.908 147.249 302.964 147.286 303.011 147.334C303.058 147.382 303.094 147.44 303.117 147.502C303.14 147.565 303.15 147.632 303.145 147.699V164.764Z" fill="#242425"/>
<path fill-rule="evenodd" clip-rule="evenodd" d="M320.56 147.501C320.907 147.677 321.242 147.876 321.563 148.096C321.854 148.365 322.061 148.713 322.157 149.098C322.319 149.473 322.387 149.881 322.356 150.288V164.863C322.356 164.963 322.356 165.161 322.257 165.161C322.218 165.199 322.171 165.227 322.119 165.244C322.068 165.261 322.013 165.267 321.959 165.26H318.357C318.303 165.267 318.249 165.262 318.197 165.245C318.146 165.227 318.099 165.198 318.061 165.16C318.022 165.122 317.993 165.075 317.976 165.023C317.959 164.972 317.953 164.917 317.961 164.863V152.183C317.968 152.128 317.961 152.073 317.942 152.021C317.923 151.969 317.891 151.923 317.85 151.886C317.811 151.848 317.764 151.82 317.713 151.802C317.661 151.785 317.607 151.78 317.553 151.787H312.464C312.365 151.787 312.166 151.787 312.166 151.886C312.166 151.985 312.067 152.084 312.067 152.183V164.863C312.072 164.93 312.063 164.997 312.04 165.06C312.016 165.123 311.98 165.18 311.933 165.228C311.887 165.276 311.83 165.314 311.768 165.338C311.705 165.363 311.639 165.374 311.572 165.37H307.97C307.903 165.374 307.836 165.363 307.773 165.338C307.711 165.314 307.655 165.276 307.608 165.228C307.561 165.18 307.525 165.123 307.502 165.06C307.479 164.997 307.469 164.93 307.474 164.863V147.798C307.469 147.732 307.479 147.665 307.502 147.602C307.525 147.539 307.561 147.481 307.608 147.434C307.655 147.386 307.711 147.348 307.773 147.324C307.836 147.299 307.903 147.288 307.97 147.292H319.657C319.812 147.26 319.972 147.263 320.126 147.299C320.28 147.335 320.424 147.404 320.549 147.501H320.56Z" fill="#242425"/>
<path fill-rule="evenodd" clip-rule="evenodd" d="M341.38 155.576C341.417 155.618 341.445 155.667 341.462 155.72C341.479 155.773 341.485 155.829 341.479 155.885V162.275C341.461 162.678 341.395 163.077 341.281 163.464C341.107 163.813 340.908 164.148 340.686 164.467C340.413 164.754 340.066 164.96 339.683 165.062C339.305 165.224 338.893 165.292 338.483 165.26H329.373C328.966 165.243 328.563 165.177 328.172 165.062C327.825 164.886 327.491 164.687 327.17 164.467C326.878 164.198 326.671 163.849 326.575 163.464C326.413 163.09 326.345 162.681 326.377 162.275V150.31C326.394 149.907 326.461 149.508 326.575 149.121C326.71 148.749 326.911 148.406 327.17 148.107C327.441 147.818 327.788 147.611 328.172 147.512C328.548 147.341 328.961 147.269 329.373 147.303H340.047C340.146 147.303 340.344 147.303 340.344 147.402C340.382 147.443 340.41 147.492 340.427 147.546C340.444 147.599 340.449 147.655 340.443 147.71V151.104C340.443 151.203 340.443 151.401 340.344 151.401C340.305 151.439 340.258 151.467 340.207 151.484C340.155 151.501 340.101 151.507 340.047 151.5H331.466C331.367 151.5 331.168 151.5 331.168 151.599C331.131 151.638 331.102 151.685 331.085 151.737C331.068 151.788 331.063 151.843 331.069 151.897V160.225C331.062 160.281 331.068 160.337 331.085 160.391C331.102 160.444 331.13 160.493 331.168 160.534C331.207 160.572 331.254 160.6 331.306 160.617C331.357 160.634 331.412 160.64 331.466 160.633H336.555C336.609 160.64 336.663 160.634 336.715 160.617C336.766 160.6 336.813 160.572 336.852 160.534C336.89 160.493 336.919 160.444 336.936 160.391C336.953 160.337 336.958 160.281 336.951 160.225V155.819C336.951 155.72 336.951 155.51 337.051 155.51C337.09 155.473 337.137 155.444 337.188 155.427C337.24 155.41 337.294 155.404 337.348 155.411H340.95C341.027 155.413 341.102 155.431 341.171 155.466C341.239 155.5 341.299 155.549 341.347 155.609L341.38 155.576Z" fill="#242425"/>
<path fill-rule="evenodd" clip-rule="evenodd" d="M118.89 33.0918C117.876 30.8773 116.495 28.8508 114.803 27.0987C113.079 25.373 111.046 23.9865 108.811 23.0114C106.465 22.0314 103.96 21.49 101.419 21.414H3.20587C2.77516 21.3767 2.34144 21.4311 1.93325 21.5735C1.52505 21.7159 1.15163 21.9431 0.837557 22.2402C0.540479 22.5544 0.313269 22.9278 0.170875 23.3361C0.0284816 23.7443 -0.0258685 24.1781 0.0114006 24.6089V135.118C0.0114006 137.212 1.0138 138.214 3.10673 138.214H25.5672C27.6601 138.214 28.6625 137.212 28.6625 135.118V49.0662H46.9261V135.118C46.9246 135.524 47.0038 135.926 47.1591 136.301C47.3144 136.677 47.5427 137.017 47.8307 137.303C48.1188 137.589 48.4607 137.815 48.8368 137.967C49.2129 138.12 49.6156 138.196 50.0214 138.192H70.5762C70.9753 138.211 71.3736 138.142 71.7429 137.99C72.1123 137.837 72.4435 137.606 72.7132 137.311C73.2376 136.698 73.5197 135.914 73.5063 135.107V49.0662H91.7368V135.118C91.7265 135.926 92.0126 136.71 92.541 137.322C92.7961 137.624 93.1179 137.863 93.4811 138.02C93.8443 138.177 94.2389 138.247 94.6339 138.225H117.293C117.7 138.227 118.103 138.147 118.479 137.992C118.855 137.837 119.197 137.609 119.485 137.322C119.772 137.034 120 136.692 120.155 136.316C120.31 135.94 120.389 135.536 120.388 135.129V40.4841C120.404 37.9429 119.894 35.426 118.89 33.0918V33.0918Z" fill="#E73427"/>
<path fill-rule="evenodd" clip-rule="evenodd" d="M221.3 110.76C221.022 110.457 220.68 110.219 220.3 110.062C219.919 109.906 219.508 109.836 219.097 109.857V109.956H171.852C171.435 109.985 171.016 109.93 170.62 109.793C170.225 109.657 169.861 109.443 169.55 109.163C169.225 108.898 168.966 108.561 168.794 108.178C168.622 107.796 168.541 107.378 168.558 106.959V24.719C168.558 22.6258 167.457 21.5242 165.254 21.5242H141.549C139.346 21.5242 138.244 22.6258 138.244 24.719V135.118C138.244 137.212 139.346 138.313 141.549 138.313H219.108C219.518 138.327 219.927 138.253 220.306 138.097C220.686 137.942 221.029 137.707 221.311 137.41C221.896 136.791 222.22 135.97 222.215 135.118V113.085C222.227 112.656 222.153 112.228 221.996 111.829C221.839 111.429 221.602 111.066 221.3 110.76Z" fill="#1D539F"/>
<path fill-rule="evenodd" clip-rule="evenodd" d="M340.575 22.4163C340.275 22.118 339.917 21.884 339.523 21.7287C339.129 21.5734 338.707 21.5 338.284 21.5129H314.127C313.704 21.5006 313.283 21.5744 312.889 21.7296C312.495 21.8849 312.137 22.1185 311.836 22.4163C311.512 22.7047 311.255 23.06 311.082 23.4575C310.909 23.855 310.824 24.2854 310.834 24.7188V62.1759C310.851 62.6001 310.78 63.0231 310.625 63.4185C310.471 63.8138 310.236 64.1729 309.936 64.473C309.636 64.7732 309.277 65.0079 308.882 65.1624C308.486 65.3169 308.063 65.3879 307.639 65.3708H273.8C271.872 65.3708 270.848 64.4785 270.605 62.848V24.7188C270.605 22.6256 269.504 21.5239 267.301 21.5239H243.265C241.062 21.5239 239.96 22.6256 239.96 24.7188V135.416C239.96 137.509 241.062 138.611 243.265 138.611H267.312C269.515 138.611 270.616 137.509 270.616 135.416V96.0636C270.781 95.5 271.093 94.9905 271.52 94.5874C272.166 94.0597 272.977 93.7752 273.811 93.7831H307.65C308.069 93.7476 308.49 93.8008 308.887 93.9394C309.284 94.078 309.647 94.2988 309.952 94.5874C310.246 94.8723 310.477 95.2155 310.631 95.5949C310.785 95.9743 310.857 96.3816 310.845 96.7907V135.427C310.85 135.858 310.942 136.284 311.114 136.679C311.286 137.074 311.535 137.431 311.847 137.729C312.15 138.023 312.509 138.254 312.902 138.407C313.296 138.561 313.716 138.633 314.138 138.622H338.295C338.717 138.634 339.138 138.561 339.531 138.408C339.925 138.255 340.284 138.024 340.586 137.729C340.908 137.439 341.164 137.084 341.337 136.687C341.51 136.289 341.596 135.86 341.589 135.427V24.7188C341.584 24.2864 341.492 23.8594 341.318 23.4636C341.144 23.0678 340.891 22.7115 340.575 22.4163V22.4163Z" fill="#F8B92A"/>
<path d="M405.782 84.0571H414.703V87.9023H405.782V98.0098H401.695V87.9023H392.774V84.0571H401.695V74.7188H405.782V84.0571Z" fill="black"/>
<g clip-path="url(#clip0)">
<path d="M541.315 3.41333L468.192 46.873L469.133 126.842L541.038 167.586L613.808 126.842V45.1834L541.315 3.41333Z" fill="#F0DB4F"/>
<path d="M593.211 86.4558L589.605 84.9783C589.48 84.933 589.342 84.9374 589.22 84.9907C589.098 85.044 589.001 85.142 588.95 85.2643C588.9 85.3866 588.898 85.5237 588.947 85.6469C588.995 85.7702 589.09 85.87 589.211 85.9257L592.816 87.4032C592.879 87.4324 592.948 87.4485 593.017 87.4506C593.087 87.4528 593.157 87.4409 593.222 87.4157C593.287 87.3905 593.346 87.3526 593.395 87.3041C593.445 87.2557 593.485 87.1978 593.511 87.1338C593.538 87.0699 593.551 87.0012 593.55 86.932C593.55 86.8628 593.535 86.7945 593.507 86.7312C593.479 86.6678 593.438 86.6108 593.387 86.5635C593.336 86.5162 593.276 86.4796 593.211 86.4558V86.4558Z" fill="#323330"/>
<path d="M589.852 81.2313C589.844 81.3672 589.891 81.5004 589.983 81.6017C590.074 81.7031 590.202 81.7642 590.339 81.7717L594.234 81.9855H594.263C594.331 81.9873 594.399 81.9758 594.462 81.9517C594.526 81.9276 594.584 81.8913 594.633 81.8449C594.682 81.7985 594.722 81.743 594.75 81.6814C594.777 81.6199 594.792 81.5535 594.794 81.4861C594.796 81.4188 594.784 81.3517 594.76 81.2888C594.736 81.2258 594.699 81.1683 594.652 81.1193C594.606 81.0704 594.55 81.0311 594.488 81.0037C594.426 80.9763 594.359 80.9612 594.291 80.9594L590.396 80.7456C590.328 80.7419 590.26 80.7516 590.196 80.774C590.132 80.7964 590.073 80.8312 590.022 80.8763C589.972 80.9215 589.931 80.976 589.901 81.0369C589.872 81.0979 589.855 81.1639 589.852 81.2313V81.2313Z" fill="#323330"/>
<path d="M589.34 76.9563C589.38 77.0861 589.47 77.1949 589.59 77.259C589.711 77.3231 589.852 77.3372 589.983 77.2983L593.721 76.1885C593.786 76.1691 593.846 76.1373 593.899 76.0947C593.952 76.0522 593.995 75.9998 594.028 75.9404C594.06 75.8811 594.08 75.8161 594.087 75.7491C594.094 75.682 594.087 75.6143 594.068 75.5497C594.048 75.4851 594.016 75.425 593.973 75.3728C593.931 75.3205 593.878 75.2771 593.818 75.2451C593.758 75.2131 593.693 75.1931 593.625 75.1863C593.558 75.1794 593.489 75.1858 593.424 75.2051L589.686 76.315C589.621 76.3344 589.56 76.3664 589.507 76.4091C589.455 76.4519 589.411 76.5046 589.379 76.5642C589.347 76.6238 589.327 76.6891 589.32 76.7564C589.313 76.8237 589.32 76.8916 589.34 76.9563V76.9563Z" fill="#323330"/>
<path d="M587.468 73.216C587.549 73.3257 587.671 73.399 587.806 73.4199C587.941 73.4407 588.08 73.4074 588.19 73.3272L591.341 71.0424C591.446 70.9603 591.515 70.8407 591.533 70.7089C591.552 70.5772 591.518 70.4435 591.438 70.3361C591.359 70.2288 591.241 70.1561 591.109 70.1335C590.977 70.1108 590.841 70.14 590.73 70.2147L587.58 72.4995C587.47 72.5798 587.396 72.7004 587.375 72.8347C587.354 72.9691 587.387 73.1062 587.468 73.216V73.216Z" fill="#323330"/>
<path d="M584.528 70.3601C584.584 70.3988 584.647 70.4262 584.713 70.4407C584.779 70.4553 584.848 70.4567 584.915 70.445C584.982 70.4332 585.046 70.4085 585.103 70.3722C585.16 70.336 585.21 70.2888 585.249 70.2335L587.489 67.0613C587.567 66.9488 587.598 66.8099 587.573 66.6752C587.549 66.5405 587.471 66.421 587.358 66.343C587.245 66.265 587.105 66.2349 586.969 66.2592C586.833 66.2836 586.713 66.3605 586.634 66.473L584.394 69.6453C584.355 69.7009 584.328 69.7636 584.314 69.8297C584.3 69.8958 584.299 69.964 584.311 70.0304C584.324 70.0968 584.349 70.1601 584.387 70.2167C584.424 70.2733 584.472 70.322 584.528 70.3601Z" fill="#323330"/>
<path d="M580.818 68.6005C580.95 68.638 581.091 68.6221 581.211 68.5564C581.331 68.4907 581.419 68.3804 581.457 68.2499L582.54 64.5303C582.578 64.3995 582.562 64.259 582.495 64.1399C582.429 64.0207 582.317 63.9327 582.185 63.895C582.054 63.8574 581.912 63.8732 581.792 63.9392C581.672 64.0051 581.583 64.1156 581.545 64.2464L580.463 67.966C580.444 68.0308 580.439 68.0986 580.446 68.1655C580.454 68.2325 580.475 68.2973 580.508 68.3562C580.541 68.4151 580.585 68.467 580.638 68.5089C580.692 68.5508 580.753 68.5819 580.818 68.6005V68.6005Z" fill="#323330"/>
<path d="M576.604 68.1405H576.639C576.706 68.1365 576.773 68.1194 576.834 68.09C576.895 68.0606 576.95 68.0196 576.995 67.9693C577.04 67.9189 577.075 67.8603 577.097 67.7966C577.119 67.733 577.129 67.6656 577.125 67.5983L576.894 63.7334C576.89 63.6661 576.872 63.6001 576.842 63.5394C576.813 63.4787 576.771 63.4244 576.72 63.3797C576.669 63.3349 576.61 63.3005 576.546 63.2784C576.482 63.2564 576.414 63.2471 576.346 63.2512C576.278 63.2552 576.211 63.2725 576.15 63.302C576.089 63.3315 576.034 63.3727 575.989 63.4232C575.944 63.4737 575.909 63.5325 575.887 63.5963C575.865 63.6601 575.856 63.7276 575.86 63.795L576.091 67.6599C576.099 67.7897 576.157 67.9115 576.252 68.0007C576.347 68.0899 576.473 68.1398 576.604 68.1405V68.1405Z" fill="#323330"/>
<path d="M512.272 31.068L538.156 16.2583L527.161 30.1788C527.043 30.3284 526.989 30.5188 527.011 30.708C527.034 30.8973 527.131 31.0698 527.282 31.1877C527.433 31.3057 527.625 31.3593 527.815 31.3369C528.006 31.3144 528.18 31.2177 528.299 31.068L540.311 15.8649V30.726C540.31 30.8228 540.329 30.9187 540.366 31.0082C540.403 31.0977 540.457 31.1791 540.526 31.2475C540.595 31.3159 540.677 31.3701 540.767 31.4068C540.857 31.4435 540.954 31.462 541.052 31.4614C541.15 31.465 541.248 31.4484 541.339 31.4127C541.431 31.377 541.514 31.323 541.584 31.254C541.653 31.185 541.708 31.1025 541.744 31.0116C541.78 30.9208 541.796 30.8235 541.793 30.726V15.8649L553.804 31.068C553.873 31.1565 553.962 31.2274 554.064 31.275C554.166 31.3226 554.278 31.3454 554.39 31.3417C554.469 31.3462 554.548 31.3349 554.622 31.3085C554.696 31.282 554.764 31.2409 554.821 31.1877C554.966 31.0661 555.06 30.8942 555.082 30.7069C555.105 30.5196 555.054 30.3308 554.942 30.1788L543.947 16.2583L570.297 31.3417C570.399 31.4078 570.52 31.438 570.641 31.4272C570.766 31.4293 570.889 31.3989 570.998 31.3388C571.107 31.2788 571.198 31.1913 571.262 31.0851C571.337 30.9084 571.345 30.7108 571.285 30.5286C571.224 30.3464 571.1 30.1919 570.934 30.0933L541.345 13.1458C541.31 13.1198 541.267 13.1076 541.224 13.1116H540.81C540.776 13.1116 540.724 13.1458 540.69 13.1458L511.565 29.8196C511.399 29.9131 511.276 30.068 511.225 30.2506C511.173 30.4332 511.196 30.6287 511.289 30.7944C511.385 30.9578 511.541 31.0778 511.725 31.1289C511.908 31.18 512.104 31.1581 512.272 31.068Z" fill="#323330"/>
<path d="M569.763 139.251L543.913 154.061L554.907 140.141C555.026 139.991 555.08 139.8 555.058 139.611C555.035 139.422 554.938 139.249 554.787 139.132C554.712 139.073 554.627 139.03 554.535 139.004C554.444 138.979 554.348 138.971 554.253 138.982C554.063 139.005 553.889 139.102 553.77 139.251L541.758 154.454V139.593C541.759 139.497 541.74 139.401 541.703 139.311C541.666 139.222 541.612 139.14 541.543 139.072C541.474 139.003 541.392 138.949 541.302 138.912C541.212 138.876 541.115 138.857 541.017 138.858C540.919 138.854 540.821 138.871 540.73 138.907C540.638 138.942 540.555 138.996 540.485 139.065C540.416 139.134 540.361 139.217 540.325 139.308C540.289 139.399 540.273 139.496 540.276 139.593V154.454L528.265 139.251C528.146 139.102 527.972 139.005 527.781 138.982C527.59 138.96 527.399 139.014 527.248 139.132C527.097 139.249 527 139.422 526.977 139.611C526.954 139.8 527.008 139.991 527.127 140.141L538.122 154.061L511.772 138.978C511.689 138.927 511.597 138.893 511.501 138.879C511.404 138.864 511.306 138.869 511.212 138.893C511.118 138.917 511.029 138.96 510.952 139.019C510.875 139.078 510.81 139.152 510.763 139.236C510.715 139.32 510.685 139.413 510.675 139.509C510.664 139.606 510.673 139.703 510.701 139.795C510.73 139.888 510.777 139.973 510.839 140.048C510.902 140.122 510.979 140.182 511.066 140.226L540.655 157.173H540.69C540.724 157.173 540.724 157.208 540.776 157.208H540.879C540.914 157.208 541 157.242 541.035 157.242C541.121 157.242 541.155 157.242 541.19 157.208H541.259C541.293 157.208 541.293 157.173 541.345 157.173H541.379L570.504 140.5C570.66 140.397 570.772 140.24 570.816 140.059C570.861 139.878 570.836 139.688 570.745 139.525C570.649 139.361 570.493 139.241 570.31 139.19C570.126 139.139 569.93 139.161 569.763 139.251Z" fill="#323330"/>
<path d="M572.692 139.063C573.187 139.063 573.588 138.665 573.588 138.174C573.588 137.683 573.187 137.284 572.692 137.284C572.197 137.284 571.796 137.683 571.796 138.174C571.796 138.665 572.197 139.063 572.692 139.063Z" fill="#323330"/>
<path d="M541.086 135.574C541.581 135.574 541.982 135.176 541.982 134.685C541.982 134.194 541.581 133.796 541.086 133.796C540.591 133.796 540.19 134.194 540.19 134.685C540.19 135.176 540.591 135.574 541.086 135.574Z" fill="#323330"/>
<path d="M508.963 139.063C509.458 139.063 509.859 138.665 509.859 138.174C509.859 137.683 509.458 137.284 508.963 137.284C508.468 137.284 508.067 137.683 508.067 138.174C508.067 138.665 508.468 139.063 508.963 139.063Z" fill="#323330"/>
<path d="M614.673 41.7813L542.327 0.341227C541.922 0.114185 541.465 -0.00512695 541 -0.00512695C540.535 -0.00512695 540.078 0.114185 539.673 0.341227L467.327 41.7813C466.924 42.0109 466.589 42.3422 466.356 42.7416C466.123 43.141 466 43.5943 466 44.0557V126.946C466 127.408 466.123 127.861 466.356 128.26C466.589 128.66 466.924 128.991 467.327 129.221L539.673 170.657C540.077 170.886 540.535 171.004 541 170.999C541.465 171 541.921 170.882 542.327 170.657L614.673 129.221C615.076 128.991 615.411 128.66 615.644 128.26C615.877 127.861 616 127.408 616 126.946V44.0557C616 43.5943 615.877 43.141 615.644 42.7416C615.411 42.3422 615.076 42.0109 614.673 41.7813ZM596.261 123.509V96.4047H596.95V123.509H596.261ZM574.481 123.509V96.4013H595.058H595.092H595.227V123.509H574.481ZM570.66 123.509V96.4013H571.545V123.507L570.66 123.509ZM558.351 123.509V113.051H559.168V123.507L558.351 123.509ZM565.933 112.027C565.589 110.618 564.21 109.578 562.599 109.578C560.987 109.578 559.61 110.621 559.262 112.027H558.466C558.674 111.092 559.198 110.256 559.95 109.657C560.702 109.058 561.638 108.731 562.602 108.731C563.567 108.731 564.502 109.058 565.254 109.657C566.006 110.256 566.53 111.092 566.738 112.027H565.933ZM564.853 112.027H560.338C560.665 111.194 561.556 110.604 562.594 110.604C563.631 110.604 564.518 111.192 564.848 112.025L564.853 112.027ZM560.2 113.053H564.982V123.509H560.203L560.2 113.053ZM566.016 113.053H566.833V123.509H566.016V113.053ZM562.595 107.702C561.303 107.704 560.057 108.176 559.092 109.029C558.128 109.882 557.512 111.056 557.361 112.33C557.311 112.436 557.301 112.558 557.334 112.672C557.334 112.723 557.334 112.776 557.334 112.827C557.326 112.863 557.322 112.899 557.322 112.935V123.51H555.547V96.4013H569.628V123.507H567.87V112.933C567.869 111.546 567.313 110.216 566.325 109.236C565.336 108.255 563.996 107.703 562.599 107.702H562.595ZM553.634 123.509V96.4013H554.496V123.507L553.634 123.509ZM548.24 123.509V96.4013H549.101V123.507L548.24 123.509ZM536.749 123.509V113.051H537.565V123.507L536.749 123.509ZM534.911 123.509V113.051H535.714V123.507L534.911 123.509ZM524.673 123.509V112.933C524.673 112.898 524.669 112.863 524.661 112.829C524.661 112.776 524.661 112.723 524.661 112.668C524.694 112.555 524.684 112.433 524.633 112.326C524.479 111.038 523.848 109.852 522.862 108.999C521.876 108.147 520.606 107.689 519.299 107.714C517.991 107.739 516.74 108.245 515.788 109.134C514.836 110.024 514.251 111.233 514.147 112.526C514.147 112.526 514.147 112.526 514.147 112.526C514.136 112.656 514.13 112.786 514.13 112.92V123.495H512.372V96.4013H526.453V123.507L524.673 123.509ZM515.155 123.509V113.051H515.977V123.507L515.155 123.509ZM522.738 112.027C522.393 110.618 521.014 109.578 519.401 109.578C517.788 109.578 516.415 110.619 516.067 112.027H515.26C515.468 111.092 515.992 110.256 516.744 109.657C517.496 109.058 518.432 108.731 519.396 108.731C520.361 108.731 521.296 109.058 522.048 109.657C522.8 110.256 523.324 111.092 523.532 112.027H522.738ZM521.657 112.027H517.151C517.478 111.194 518.367 110.604 519.405 110.604C520.442 110.604 521.333 111.192 521.664 112.025L521.657 112.027ZM517.004 113.053H521.786V123.509H517.011L517.004 113.053ZM522.82 113.053H523.637V123.509H522.82V113.053ZM510.462 123.509V96.4013H511.346V123.507L510.462 123.509ZM508.567 123.509V96.4013H509.428V123.507L508.567 123.509ZM485.06 123.509V96.4047H485.75V123.509H485.06ZM471.354 123.509L471.323 103.598L471.546 103.452L471.587 103.427L471.604 103.416L483.323 95.8267V95.8934C483.323 96.0295 483.378 96.16 483.474 96.2562C483.571 96.3524 483.703 96.4065 483.84 96.4065H484.031V123.509H471.354ZM486.034 92.0952V92.2953H484.721V92.0952H486.034ZM493.205 89.424L493.549 89.1982L504.208 82.2944L509.134 79.1033V91.0742H506.587C506.449 91.0742 506.318 91.1283 506.221 91.2245C506.124 91.3207 506.07 91.4512 506.07 91.5873V92.1431H489.008L493.205 89.424ZM535.48 63.8113C535.48 63.8215 535.49 63.8301 535.496 63.8403C535.503 63.8579 535.512 63.875 535.521 63.8916C535.521 63.9053 535.54 63.9173 535.549 63.931C535.558 63.9446 535.57 63.9583 535.58 63.9703L535.616 64.0045L535.654 64.0353L535.699 64.0626L535.74 64.0849L535.797 64.1054L535.827 64.1174C535.866 64.1272 535.906 64.1324 535.947 64.1328V64.1328C535.976 64.1351 536.005 64.1351 536.033 64.1328V64.1328C536.062 64.1272 536.09 64.1192 536.118 64.1088H536.126L536.144 64.1003C536.164 64.0913 536.185 64.081 536.204 64.0695L536.233 64.0507C536.25 64.0385 536.266 64.0254 536.281 64.0113L536.306 63.9908C536.324 63.9717 536.342 63.9511 536.357 63.9292C536.375 63.9034 536.391 63.8759 536.404 63.8472C536.404 63.8472 536.404 63.8318 536.404 63.8249C536.411 63.8071 536.418 63.7888 536.423 63.7702C536.509 63.4521 536.767 62.6706 537.374 62.3012C537.542 62.1965 537.732 62.1326 537.929 62.1148L546.392 62.0036L551.128 65.0699L550.565 65.9335C550.514 66.011 550.485 66.1006 550.482 66.1928C550.478 66.285 550.5 66.3765 550.544 66.4575C550.589 66.5386 550.655 66.6063 550.735 66.6534C550.815 66.7005 550.906 66.7254 550.999 66.7253H552.571V76.09L552.398 76.2918C552.398 76.2918 552.386 76.3089 552.379 76.3175C552.368 76.3317 552.357 76.3466 552.347 76.3619C552.338 76.3756 552.331 76.3893 552.324 76.4047C552.317 76.4201 552.309 76.4355 552.303 76.4509C552.298 76.4663 552.293 76.4834 552.288 76.4988C552.283 76.5141 552.288 76.5295 552.278 76.5466C552.277 76.5649 552.277 76.5831 552.278 76.6014C552.278 76.6116 552.278 76.6219 552.278 76.6321V81.0272H549.677L543.592 77.4222L543.749 77.2324C543.781 77.1929 543.802 77.1447 543.807 77.0938C543.811 77.0429 543.801 76.9917 543.776 76.9468C543.76 76.9159 543.753 76.8807 543.757 76.8459C543.762 76.8068 543.78 76.7706 543.809 76.7433C543.857 76.6962 543.885 76.6323 543.886 76.5652C543.887 76.4981 543.862 76.4332 543.815 76.3844C543.769 76.3357 543.705 76.3069 543.638 76.3043C543.57 76.3017 543.504 76.3254 543.454 76.3705C543.25 76.557 543.018 76.7095 542.765 76.822C542.707 76.8471 542.65 76.8704 542.592 76.8921L542.534 76.7878C542.51 76.7494 542.477 76.7175 542.437 76.6948C542.398 76.6721 542.354 76.6594 542.308 76.6578H542.12L541.898 76.6373L541.776 76.5757C541.839 76.568 541.899 76.5425 541.948 76.5022C542.182 76.3106 542.084 75.8848 542.003 75.6471C541.858 75.2179 541.541 74.7527 541.093 74.7356C540.645 74.7185 540.324 75.1118 540.143 75.4846C540.073 75.6283 539.864 76.1191 540.099 76.3893C540.159 76.4573 540.24 76.5031 540.33 76.5193L540.081 76.6424L539.957 76.6698H539.768C539.729 76.6687 539.69 76.6763 539.654 76.692C539.618 76.7077 539.587 76.731 539.561 76.7604L539.435 76.9092C539.365 76.8852 539.294 76.8562 539.227 76.8254C538.974 76.7131 538.741 76.5606 538.537 76.3739C538.487 76.3289 538.421 76.3051 538.354 76.3077C538.286 76.3103 538.222 76.3391 538.176 76.3879C538.129 76.4366 538.104 76.5015 538.105 76.5686C538.107 76.6357 538.134 76.6996 538.182 76.7467C538.211 76.774 538.229 76.8102 538.234 76.8493C538.238 76.8848 538.231 76.9207 538.213 76.9519C538.189 76.9967 538.179 77.0475 538.184 77.098C538.189 77.1486 538.209 77.1965 538.241 77.2358L538.453 77.4923L532.478 81.0306H529.702V76.6133C529.702 76.6031 529.702 76.5928 529.702 76.5826C529.703 76.5643 529.703 76.5461 529.702 76.5278C529.702 76.5107 529.702 76.4953 529.691 76.4799C529.683 76.4467 529.671 76.4145 529.655 76.3842C529.655 76.3705 529.641 76.3568 529.633 76.3431C529.622 76.3271 529.611 76.3117 529.598 76.297C529.598 76.297 529.588 76.2799 529.581 76.273L529.409 76.0712V66.7099H530.97C531.063 66.71 531.154 66.6851 531.234 66.638C531.314 66.5909 531.38 66.5232 531.424 66.4422C531.469 66.3611 531.491 66.2696 531.487 66.1774C531.483 66.0852 531.455 65.9956 531.404 65.9181L530.832 65.0408L534.138 62.8997C534.348 62.8382 534.575 62.8571 534.772 62.9528C535.184 63.1546 535.404 63.6163 535.48 63.8113ZM597.293 92.0935V92.2936H595.98V92.0935H597.293ZM595.611 95.3787V95.1683H597.664V95.3804L595.611 95.3787ZM573.344 95.3787V95.1786H574.226V95.3787H573.344ZM571.345 95.3787H569.944V95.1786H572.31V95.3787H571.345ZM552.926 95.3787V95.1786H555.29V95.3787H552.926ZM548.245 95.3787V95.1786H549.834V95.3787H548.245ZM544.335 112.029C543.99 110.619 542.611 109.58 540.998 109.58C539.385 109.58 538.012 110.623 537.664 112.029H536.857C537.065 111.094 537.589 110.258 538.341 109.659C539.093 109.059 540.029 108.733 540.993 108.733C541.958 108.733 542.893 109.059 543.645 109.659C544.397 110.258 544.921 111.094 545.129 112.029H544.335ZM543.254 112.029H538.744C539.072 111.196 539.961 110.606 540.998 110.606C542.036 110.606 542.927 111.192 543.254 112.025V112.029ZM546.184 112.029C545.97 110.817 545.332 109.719 544.382 108.928C543.433 108.136 542.233 107.703 540.993 107.703C539.753 107.703 538.553 108.136 537.604 108.928C536.654 109.719 536.017 110.817 535.802 112.029H534.996C535.23 110.599 535.968 109.298 537.08 108.359C538.192 107.42 539.604 106.905 541.064 106.905C542.524 106.905 543.936 107.42 545.047 108.359C546.159 109.298 546.898 110.599 547.132 112.029H546.184ZM526.71 95.3787V95.1786H529.074V95.3787H526.71ZM510.657 95.3787H509.692V95.1786H512.058V95.3787H510.657ZM485.708 93.3265V94.1474H484.957V93.3265H485.708ZM506.216 93.1692C506.254 93.2077 506.298 93.2401 506.347 93.2649V94.1559H486.992C486.964 94.1536 486.936 94.1536 486.908 94.1559H486.735V93.6155L487.271 93.2735L487.413 93.1811L506.216 93.1692ZM508.656 92.1003V92.3004H507.105V92.1003H508.656ZM510.159 78.173C510.159 78.173 510.159 78.1644 510.159 78.1593V76.8032L510.331 76.6014C510.331 76.5928 510.345 76.5826 510.352 76.574L510.369 76.5518L510.378 76.5364C510.388 76.5204 510.397 76.5038 510.405 76.4868L510.418 76.4646V76.4475C510.424 76.429 510.43 76.4101 510.435 76.391V76.3688V76.3517C510.436 76.3312 510.436 76.3106 510.435 76.2901C510.435 76.2901 510.435 76.2782 510.435 76.273V76.2405C510.435 76.2405 510.435 76.2405 510.435 76.232V66.7116H528.358V76.2371C528.358 76.2371 528.358 76.2371 528.358 76.2491V76.2816C528.358 76.2816 528.358 76.2918 528.358 76.297C528.356 76.3175 528.356 76.338 528.358 76.3585V76.3756V76.3979C528.363 76.417 528.369 76.4359 528.376 76.4543V76.4714L528.387 76.4936C528.395 76.5107 528.404 76.5272 528.414 76.5432L528.423 76.5586L528.44 76.5808C528.44 76.5894 528.452 76.5997 528.461 76.6082L528.633 76.81V83.1478H526.565C526.428 83.1478 526.297 83.2018 526.2 83.298C526.103 83.3943 526.048 83.5247 526.048 83.6608V84.887C526.049 84.9979 526.085 85.1057 526.153 85.1942C526.22 85.2827 526.315 85.3471 526.422 85.3778V94.1491H512.372V85.3778C512.479 85.3471 512.574 85.2827 512.641 85.1942C512.709 85.1057 512.745 84.9979 512.746 84.887V83.6608C512.746 83.5247 512.691 83.3943 512.594 83.298C512.497 83.2018 512.366 83.1478 512.229 83.1478H510.161L510.159 78.173ZM532.48 82.043C532.564 82.0652 532.652 82.0652 532.737 82.043H539.23C539.046 82.3643 538.954 82.73 538.966 83.0996C538.977 83.4693 539.091 83.8286 539.296 84.1379C535.623 84.5501 533.164 86.0567 532.197 86.7544C532.132 86.802 532.078 86.8643 532.041 86.9362C532.004 87.0081 531.985 87.0876 531.985 87.1683V94.1542H529.702V82.0379L532.48 82.043ZM540.516 76.0097C540.555 75.8022 540.646 75.6077 540.779 75.4436C540.813 75.3918 540.856 75.3472 540.907 75.3122C540.958 75.2773 541.015 75.2528 541.076 75.2401V75.2401C541.128 75.2509 541.177 75.2722 541.22 75.3024C541.263 75.3327 541.3 75.3715 541.327 75.4162C541.401 75.5215 541.459 75.6367 541.5 75.7583C541.428 75.6866 541.338 75.6345 541.24 75.6072C541.141 75.5799 541.037 75.5782 540.938 75.6022C540.839 75.6263 540.748 75.6753 540.673 75.7446C540.598 75.8138 540.543 75.901 540.512 75.9977L540.516 76.0097ZM570.662 94.1508V85.4H571.843V94.1491H570.662V94.1508ZM571.843 84.1756V84.3757H570.292V84.1756H571.843ZM573.692 93.3197H574.621V94.1508H573.692V93.3197ZM574.898 92.2936H573.347V92.0935H574.898V92.2936ZM571.533 66.7099V76.2542C571.533 76.2542 571.533 76.2679 571.533 76.2747C571.531 76.2975 571.531 76.3204 571.533 76.3431C571.533 76.3551 571.533 76.3671 571.533 76.379C571.538 76.3994 571.544 76.4194 571.551 76.4389C571.551 76.4509 571.562 76.4628 571.569 76.4748C571.577 76.4924 571.586 76.5096 571.596 76.5261L571.622 76.562C571.622 76.5723 571.636 76.5826 571.645 76.5928L571.817 76.7946V78.1627C571.817 78.1627 571.817 78.1747 571.817 78.1815V83.1495H569.749C569.612 83.1495 569.48 83.2035 569.383 83.2997C569.286 83.396 569.232 83.5265 569.232 83.6625V84.8887C569.232 84.9996 569.269 85.1074 569.336 85.1959C569.404 85.2844 569.498 85.3488 569.606 85.3795V94.1508H555.547V85.3778C555.654 85.3471 555.749 85.2827 555.816 85.1942C555.884 85.1057 555.92 84.9979 555.921 84.887V83.6608C555.921 83.5247 555.866 83.3943 555.769 83.298C555.672 83.2018 555.541 83.1478 555.404 83.1478H553.336V76.8117L553.508 76.6099C553.517 76.5997 553.524 76.5877 553.532 76.5774L553.556 76.5449C553.568 76.5268 553.578 76.5079 553.587 76.4885L553.601 76.456C553.609 76.4348 553.616 76.4131 553.622 76.391C553.622 76.3808 553.622 76.3705 553.622 76.3602C553.624 76.3358 553.624 76.3112 553.622 76.2867C553.622 76.2867 553.622 76.2747 553.622 76.2679V66.7099H571.533ZM553.332 94.1508V85.4H554.513V94.1491L553.332 94.1508ZM554.883 84.3757H553.332V84.1756H554.883V84.3757ZM552.298 94.1508H550.151V86.999C550.151 86.999 550.151 86.999 550.151 86.9887C550.153 86.9033 550.134 86.8186 550.095 86.7425C550.056 86.6663 549.998 86.6011 549.927 86.5527C548.934 85.8686 546.416 84.4252 542.729 84.0952C542.921 83.7886 543.027 83.436 543.034 83.0748C543.041 82.7135 542.95 82.357 542.77 82.043H552.298V94.1508ZM548.247 94.1508V88.7074C548.247 88.7074 548.247 88.7074 548.247 88.6972C548.248 88.6778 548.248 88.6584 548.247 88.639C548.247 88.6236 548.247 88.6099 548.247 88.5963C548.242 88.5795 548.237 88.5629 548.231 88.5467C548.231 88.5313 548.223 88.5159 548.216 88.5022C548.209 88.4885 548.2 88.4731 548.192 88.4595C548.184 88.4442 548.175 88.4294 548.166 88.415C548.166 88.403 548.147 88.391 548.136 88.3808C548.125 88.3658 548.112 88.3516 548.098 88.338V88.338C546.176 86.584 543.649 85.6277 541.038 85.6658C538.427 85.704 535.93 86.7338 534.06 88.5432C534.011 88.591 533.971 88.6482 533.944 88.7113C533.917 88.7745 533.903 88.8423 533.903 88.9109V94.1593H533.042V87.4385C534.22 86.6347 536.991 85.1042 541.06 85.0631H541.233C545.196 85.0631 547.954 86.4945 549.146 87.2624V94.161L548.247 94.1508ZM535.639 95.1769H546.435V95.3769H535.639V95.1769ZM546.952 94.1508H534.92V89.123C536.582 87.5875 538.759 86.7184 541.03 86.684C543.301 86.6495 545.504 87.4522 547.213 88.9366V94.1508H546.952ZM540.383 79.4077C540.357 79.1614 540.323 78.9152 540.281 78.6689C540.367 78.7718 540.436 78.8872 540.486 79.0109C540.551 79.1859 540.584 79.3703 540.586 79.5565C540.583 79.876 540.677 80.1891 540.857 80.4543C541.016 80.6512 541.191 80.8338 541.383 80.9998L541.396 81.0135H540.449C540.459 80.4768 540.436 79.94 540.381 79.406L540.383 79.4077ZM541.002 82.0379C541.2 82.0379 541.393 82.0962 541.558 82.2053C541.723 82.3145 541.851 82.4697 541.927 82.6513C542.003 82.8328 542.022 83.0326 541.984 83.2253C541.945 83.4181 541.85 83.5951 541.71 83.7341C541.57 83.873 541.391 83.9676 541.197 84.006C541.003 84.0443 540.802 84.0246 540.619 83.9494C540.436 83.8742 540.279 83.7469 540.169 83.5835C540.059 83.4201 540 83.228 540 83.0315C540.001 82.7684 540.106 82.5162 540.294 82.33C540.481 82.1438 540.735 82.0388 541 82.0379H541.002ZM542.072 81.0118C542.063 80.4939 542.086 79.9759 542.141 79.4607C542.175 79.1358 542.224 78.8109 542.282 78.4894C542.31 78.3406 542.339 78.1918 542.372 78.0447L542.522 78.096C542.584 78.1178 542.653 78.1147 542.713 78.0875V78.0875L547.654 81.0135L542.072 81.0118ZM542.482 77.5334L542.272 77.4599C542.238 77.4481 542.202 77.4435 542.166 77.4465C542.13 77.4494 542.095 77.4597 542.063 77.4767C542.032 77.4938 542.004 77.5173 541.982 77.5456C541.96 77.5739 541.944 77.6064 541.936 77.6411C541.915 77.7249 541.898 77.8121 541.879 77.8925C541.855 77.8737 541.832 77.8532 541.808 77.8344C541.66 77.7269 541.495 77.6432 541.321 77.5864C541.243 77.5618 541.169 77.5297 541.098 77.4906C540.892 77.3545 540.731 77.162 540.633 76.9366L540.698 76.9041L540.719 76.8921H540.733H540.743L540.916 76.7672C540.997 76.7964 541.084 76.8035 541.169 76.7878L541.207 76.8425C541.244 76.8945 541.3 76.9305 541.364 76.9434L541.719 77.1144C541.748 77.1286 541.779 77.1373 541.812 77.1401L542.094 77.1657C542.094 77.1657 542.108 77.1657 542.118 77.1657H542.172L542.26 77.3196C542.285 77.3644 542.324 77.4004 542.371 77.4227C542.418 77.445 542.47 77.4526 542.522 77.4445C542.505 77.4722 542.491 77.5014 542.48 77.5317L542.482 77.5334ZM540.156 77.1418C540.296 77.4646 540.531 77.7385 540.829 77.9284C540.928 77.9857 541.033 78.0327 541.141 78.0687C541.269 78.1064 541.389 78.1641 541.498 78.2397C541.594 78.3139 541.68 78.4008 541.753 78.4979C541.7 78.7972 541.657 79.0999 541.626 79.4009C541.589 79.7429 541.567 80.0969 541.557 80.4458C541.458 80.3543 541.365 80.2566 541.279 80.1533C541.157 79.964 541.097 79.7418 541.107 79.5172C541.107 79.1775 541.016 78.844 540.844 78.5505C540.671 78.257 540.424 78.014 540.126 77.8463C540.111 77.7762 540.095 77.7061 540.078 77.636C540.069 77.6013 540.054 77.5687 540.032 77.5404C540.01 77.5121 539.982 77.4887 539.95 77.4716C539.919 77.4546 539.884 77.4442 539.848 77.4413C539.812 77.4384 539.776 77.443 539.742 77.4547L539.585 77.5094C539.576 77.4841 539.564 77.4595 539.551 77.4359C539.586 77.4342 539.62 77.4255 539.651 77.4102C539.683 77.3949 539.711 77.3734 539.733 77.347L539.89 77.164H539.988C540.01 77.1667 540.031 77.1667 540.052 77.164L540.156 77.1418ZM539.366 78.1388C539.383 78.1278 539.399 78.1158 539.415 78.1029C539.439 78.1024 539.463 78.0983 539.487 78.0909L539.637 78.0396C539.852 79.0155 539.951 80.013 539.932 81.0118H534.513L539.366 78.1388ZM528.671 84.1756V84.3757H527.12V84.1756H528.671ZM527.491 85.4017H528.671V94.1508H527.491V85.4017ZM510.657 94.1508H510.161V85.4H511.339V94.1491L510.657 94.1508ZM507.383 94.1508V93.3197H508.312V94.1508H507.383ZM511.713 84.3757H510.162V84.1756H511.713V84.3757ZM484.338 95.3787V95.1683H485.956C485.984 95.1706 486.013 95.1706 486.041 95.1683H486.385V95.3718L484.338 95.3787ZM487.423 95.1752H506.738V95.3667H487.423V95.1752ZM507.772 95.3752V95.1752H508.656V95.3752H507.772ZM513.089 95.1752H525.669V95.3752H513.089V95.1752ZM530.107 95.1752H531.204V95.3752H530.108L530.107 95.1752ZM532.239 95.3752V95.1752H533.884V95.3752H532.239ZM534.92 96.4013H547.211V96.5159C547.211 96.5159 547.211 96.5313 547.211 96.5399V109.325C546.573 108.273 545.672 107.403 544.595 106.799C543.518 106.195 542.302 105.878 541.065 105.878C539.828 105.878 538.612 106.195 537.535 106.799C536.458 107.403 535.556 108.273 534.918 109.325L534.92 96.4013ZM550.868 95.1752H551.892V95.3752H550.868V95.1752ZM556.326 95.1752H568.906V95.3752H556.326V95.1752ZM575.262 95.1752H594.577V95.3752H575.26L575.262 95.1752ZM596.287 93.3197H597.035V94.1405H596.287V93.3197ZM595.253 93.607V94.1405H595.08C595.052 94.1382 595.024 94.1382 594.996 94.1405H575.655V93.2495C575.703 93.2247 575.747 93.1924 575.786 93.1538H594.57L595.253 93.607ZM592.983 92.1362H575.922V91.5805C575.922 91.4444 575.867 91.3139 575.77 91.2177C575.673 91.1215 575.542 91.0674 575.405 91.0674H572.877V79.1136L592.983 92.1362ZM572.055 65.6856H551.995L552.319 65.1879L562.587 49.4222L573.192 65.6856H572.055ZM530.005 65.6856H508.808L519.413 49.4222L530.005 65.6856ZM486.773 96.4047H486.906C486.942 96.4046 486.979 96.4006 487.014 96.3928H507.178C507.205 96.395 507.233 96.395 507.26 96.3928H507.522V123.498H486.773V96.4047ZM527.489 96.4047H528.351V123.51H527.489V96.4047ZM529.385 96.4047H531.97V123.51H529.385V96.4047ZM533.004 96.4047H533.865V96.7143C533.865 96.7143 533.865 96.7245 533.865 96.7314V112.526C533.865 112.526 533.865 112.536 533.865 112.543V123.512H533.004V96.4047ZM538.594 113.055H543.376V123.51H538.61L538.594 113.055ZM544.41 113.055H545.227V123.51H544.41V113.055ZM546.261 113.055H547.197V123.51H546.261V113.055ZM550.137 96.4047H552.595V123.51H550.151L550.137 96.4047ZM572.565 96.4047H573.426V123.51H572.565V96.4047ZM597.974 96.4047H598.181C598.318 96.4047 598.449 96.3507 598.546 96.2545C598.643 96.1583 598.698 96.0278 598.698 95.8917V95.8301L601.062 97.3693L610.732 103.632L610.744 123.521H610.702H597.988L597.974 96.4047ZM540.998 5.66488L610.69 45.5795L610.728 102.399L602.082 96.7929L598.698 94.6023C598.685 94.4753 598.625 94.3576 598.529 94.2722C598.433 94.1868 598.309 94.1399 598.181 94.1405H598.077V93.2444C598.154 93.1991 598.217 93.135 598.261 93.0583C598.305 92.9816 598.328 92.8949 598.329 92.8066V91.5805C598.329 91.4444 598.274 91.3139 598.177 91.2177C598.08 91.1215 597.949 91.0674 597.812 91.0674H595.463C595.326 91.0674 595.194 91.1215 595.097 91.2177C595 91.3139 594.946 91.4444 594.946 91.5805V92.1362H594.882L593.988 91.5565L586.041 86.4107C587.355 84.4957 587.989 82.2012 587.843 79.8892C587.697 77.5771 586.78 75.379 585.236 73.6414C583.692 71.9039 581.609 70.7257 579.316 70.2928C577.022 69.8599 574.649 70.1968 572.57 71.2503V66.7116H574.142C574.17 66.7083 574.198 66.7026 574.226 66.6945H574.252L574.319 66.674H574.342C574.367 66.6629 574.392 66.6498 574.416 66.6347V66.6347C574.436 66.6207 574.456 66.6053 574.474 66.5885L574.495 66.5714C574.51 66.5553 574.525 66.5381 574.538 66.5201L574.559 66.4962C574.572 66.4754 574.584 66.4537 574.595 66.4312L574.607 66.4107C574.613 66.3944 574.618 66.3778 574.622 66.3611C574.622 66.3457 574.633 66.332 574.636 66.3149C574.64 66.2978 574.636 66.291 574.636 66.279C574.638 66.2573 574.638 66.2356 574.636 66.214V66.214C574.636 66.202 574.636 66.1918 574.636 66.1798C574.638 66.1593 574.638 66.1387 574.636 66.1182C574.633 66.1009 574.628 66.0838 574.622 66.0669C574.622 66.0515 574.622 66.0361 574.609 66.0225C574.6 66.0012 574.589 65.9807 574.578 65.9609C574.578 65.9609 574.578 65.9438 574.564 65.9352L563.534 49.0134H563.907C564.044 49.0134 564.175 48.9594 564.272 48.8632C564.369 48.767 564.424 48.6365 564.424 48.5004C564.424 48.3643 564.369 48.2338 564.272 48.1376C564.175 48.0414 564.044 47.9874 563.907 47.9874H563.102V45.9814C563.149 45.9672 563.198 45.9597 563.247 45.9591V45.9591C563.372 45.9601 563.493 46.0022 563.591 46.0788C563.645 46.1217 563.706 46.1535 563.772 46.1726C563.838 46.1916 563.907 46.1974 563.975 46.1896C564.044 46.1818 564.109 46.1607 564.169 46.1274C564.229 46.094 564.282 46.0492 564.324 45.9955C564.366 45.9418 564.397 45.8802 564.415 45.8145C564.433 45.7488 564.438 45.6801 564.429 45.6126C564.42 45.545 564.397 45.4799 564.363 45.4211C564.328 45.3623 564.282 45.3109 564.227 45.2699C563.951 45.0542 563.612 44.9341 563.26 44.9279H563.247C563.197 44.9279 563.15 44.9279 563.104 44.9279V44.6577C563.104 44.5217 563.049 44.3912 562.952 44.2949C562.855 44.1987 562.724 44.1447 562.587 44.1447C562.45 44.1447 562.318 44.1987 562.221 44.2949C562.124 44.3912 562.07 44.5217 562.07 44.6577V44.9279C562.027 44.9279 561.983 44.9279 561.939 44.9279H561.925C561.569 44.9312 561.225 45.0515 560.946 45.2699C560.891 45.3109 560.845 45.3623 560.81 45.4211C560.776 45.4799 560.753 45.545 560.744 45.6126C560.735 45.6801 560.74 45.7488 560.758 45.8145C560.776 45.8802 560.807 45.9418 560.849 45.9955C560.891 46.0492 560.944 46.094 561.004 46.1274C561.064 46.1607 561.13 46.1818 561.198 46.1896C561.266 46.1974 561.335 46.1916 561.401 46.1726C561.467 46.1535 561.529 46.1217 561.582 46.0788C561.681 46.0034 561.802 45.9619 561.927 45.9608V45.9608C561.974 45.9613 562.021 45.9682 562.066 45.9814V47.9634H561.261C561.124 47.9634 560.993 48.0175 560.896 48.1137C560.799 48.2099 560.744 48.3404 560.744 48.4765C560.744 48.6125 560.799 48.743 560.896 48.8392C560.993 48.9354 561.124 48.9895 561.261 48.9895H561.634L551.724 64.1943L546.868 61.0511L546.847 61.0408C546.826 61.0278 546.803 61.0164 546.78 61.0066L546.737 60.9929L546.685 60.9776C546.665 60.9764 546.645 60.9764 546.625 60.9776H546.589L537.943 61.0904H537.907C537.542 61.1212 537.19 61.2385 536.881 61.4325C536.457 61.7047 536.11 62.0804 535.873 62.5235C535.689 62.3262 535.47 62.1644 535.227 62.0464C534.998 61.9374 534.75 61.8743 534.496 61.8608C534.243 61.8473 533.989 61.8836 533.75 61.9677C533.711 61.9815 533.674 61.9999 533.64 62.0224L530.264 64.1806L520.363 48.9895H520.735C520.872 48.9895 521.004 48.9354 521.101 48.8392C521.198 48.743 521.252 48.6125 521.252 48.4765C521.252 48.3404 521.198 48.2099 521.101 48.1137C521.004 48.0175 520.872 47.9634 520.735 47.9634H519.93V45.9814C519.976 45.9676 520.023 45.9602 520.07 45.9591C520.194 45.9627 520.315 46.0039 520.415 46.0771C520.523 46.158 520.659 46.1934 520.793 46.1758C520.928 46.1581 521.05 46.0888 521.133 45.9827C521.216 45.8767 521.255 45.7424 521.239 45.6087C521.224 45.4751 521.156 45.3528 521.051 45.2682C520.767 45.0488 520.419 44.9285 520.06 44.9262C520.015 44.9262 519.972 44.9262 519.929 44.9262V44.656C519.929 44.5199 519.874 44.3894 519.777 44.2932C519.68 44.197 519.549 44.143 519.412 44.143C519.275 44.143 519.143 44.197 519.046 44.2932C518.949 44.3894 518.895 44.5199 518.895 44.656V44.9262C518.848 44.9262 518.8 44.9262 518.752 44.9262H518.734C518.383 44.9323 518.044 45.0525 517.768 45.2682C517.713 45.3092 517.667 45.3606 517.632 45.4194C517.597 45.4782 517.575 45.5433 517.566 45.6109C517.557 45.6784 517.561 45.747 517.58 45.8128C517.598 45.8785 517.629 45.9401 517.671 45.9938C517.713 46.0475 517.766 46.0923 517.825 46.1256C517.885 46.159 517.951 46.1801 518.02 46.1879C518.088 46.1957 518.157 46.1899 518.223 46.1708C518.289 46.1518 518.35 46.12 518.403 46.0771C518.502 46.0005 518.623 45.9584 518.748 45.9574C518.798 45.9584 518.848 45.9659 518.896 45.9797V47.96H518.092C517.954 47.96 517.823 48.014 517.726 48.1103C517.629 48.2065 517.575 48.337 517.575 48.473C517.575 48.6091 517.629 48.7396 517.726 48.8358C517.823 48.932 517.954 48.9861 518.092 48.9861H518.464L507.434 65.9079C507.434 65.9079 507.434 65.925 507.421 65.9335C507.409 65.9533 507.398 65.9739 507.39 65.9951C507.39 66.0105 507.379 66.0259 507.376 66.0396C507.37 66.0564 507.366 66.0735 507.362 66.0909C507.361 66.1114 507.361 66.1319 507.362 66.1524C507.362 66.1644 507.362 66.1747 507.362 66.1866C507.361 66.2083 507.361 66.23 507.362 66.2516C507.362 66.2636 507.362 66.2756 507.362 66.2875C507.362 66.2995 507.371 66.3183 507.376 66.3337C507.38 66.3505 507.385 66.367 507.391 66.3833L507.403 66.4038C507.414 66.4263 507.426 66.448 507.44 66.4688L507.46 66.4927C507.473 66.5108 507.488 66.5279 507.503 66.544L507.524 66.5612C507.542 66.5779 507.562 66.5934 507.583 66.6073C507.606 66.6224 507.631 66.6356 507.657 66.6467H507.679C507.701 66.655 507.723 66.6619 507.746 66.6672H507.772C507.802 66.6727 507.833 66.6756 507.864 66.6757H509.428V76.0268L509.256 76.2286C509.256 76.2286 509.244 76.2457 509.237 76.2542C509.225 76.2684 509.214 76.2833 509.204 76.2987C509.196 76.3124 509.189 76.326 509.182 76.3414C509.175 76.3568 509.166 76.3722 509.161 76.3876C509.156 76.403 509.151 76.4201 509.146 76.4355C509.141 76.4509 509.146 76.4663 509.135 76.4834C509.134 76.5016 509.134 76.5199 509.135 76.5381C509.135 76.5484 509.135 76.5586 509.135 76.5689V77.8429L503.645 81.4L492.986 88.3038L487.126 92.1038H487.073V91.548C487.073 91.4119 487.019 91.2814 486.922 91.1852C486.825 91.089 486.693 91.0349 486.556 91.0349H484.19C484.053 91.0349 483.921 91.089 483.824 91.1852C483.727 91.2814 483.673 91.4119 483.673 91.548V92.7741C483.673 92.8624 483.697 92.9491 483.741 93.0258C483.785 93.1025 483.848 93.1666 483.925 93.2119V94.108H483.821C483.694 94.1072 483.57 94.1532 483.475 94.2372C483.379 94.3212 483.319 94.4372 483.304 94.5629L471.306 102.375L471.22 45.5795L540.998 5.66488ZM540.998 165.356L540.978 165.344L473.042 126.416H507.36V125.219H471.342V124.535H610.701H610.744V125.219H574.648V126.416H609.038L540.998 165.356Z" fill="#323330"/>
<path d="M517.614 35.6392C517.542 35.6383 517.47 35.6518 517.402 35.679C517.335 35.7062 517.274 35.7464 517.222 35.7974C517.171 35.8484 517.13 35.9091 517.103 35.9759C517.076 36.0428 517.062 36.1143 517.063 36.1865V38.8201L514.891 35.9812C514.736 35.7931 514.581 35.6392 514.306 35.6392H514.185C514.108 35.6385 514.031 35.6531 513.96 35.6821C513.888 35.711 513.824 35.7539 513.769 35.808C513.714 35.8621 513.671 35.9265 513.642 35.9973C513.613 36.0682 513.598 36.1441 513.599 36.2207V40.2908C513.598 40.3627 513.611 40.434 513.638 40.5009C513.664 40.5677 513.704 40.6286 513.754 40.6802C513.805 40.7319 513.865 40.7731 513.931 40.8017C513.998 40.8302 514.069 40.8455 514.142 40.8466C514.214 40.8477 514.286 40.8347 514.353 40.8082C514.421 40.7817 514.482 40.7424 514.534 40.6923C514.586 40.6423 514.628 40.5826 514.657 40.5167C514.685 40.4507 514.701 40.3798 514.702 40.3079V37.5546L516.959 40.496C517.115 40.6841 517.27 40.838 517.545 40.838H517.58C517.657 40.8387 517.734 40.8241 517.805 40.7952C517.876 40.7662 517.941 40.7234 517.996 40.6693C518.05 40.6151 518.093 40.5508 518.123 40.4799C518.152 40.409 518.166 40.3331 518.166 40.2566V36.1865C518.167 36.1143 518.153 36.0428 518.126 35.9759C518.098 35.9091 518.058 35.8484 518.006 35.7974C517.955 35.7464 517.894 35.7062 517.826 35.679C517.759 35.6518 517.687 35.6383 517.614 35.6392V35.6392Z" fill="#323330"/>
<path d="M521.957 35.6221C520.371 35.6221 519.182 36.8192 519.182 38.2557C519.182 39.7264 520.303 40.8893 521.905 40.8893C523.508 40.8893 524.68 39.6922 524.68 38.2557C524.68 36.785 523.542 35.6221 521.957 35.6221ZM521.94 39.8803C521.73 39.8773 521.522 39.8325 521.33 39.7488C521.137 39.665 520.964 39.5438 520.819 39.3924C520.675 39.241 520.562 39.0624 520.488 38.8672C520.414 38.672 520.38 38.4641 520.389 38.2557C520.389 37.3664 521.009 36.6653 521.94 36.6653C522.836 36.6653 523.491 37.4006 523.491 38.2899C523.491 39.1792 522.87 39.8803 521.94 39.8803V39.8803Z" fill="#323330"/>
<path d="M527.678 35.7075H526.231C526.154 35.7069 526.077 35.7214 526.006 35.7504C525.934 35.7794 525.87 35.8222 525.815 35.8763C525.76 35.9304 525.717 35.9948 525.688 36.0657C525.659 36.1365 525.644 36.2124 525.645 36.289V40.2394C525.65 40.3905 525.714 40.5338 525.823 40.6391C525.932 40.7444 526.079 40.8034 526.231 40.8038H527.678C529.316 40.8038 530.401 39.6751 530.401 38.2557C530.401 36.8362 529.264 35.7075 527.678 35.7075ZM527.678 39.7948H526.817V36.7165H527.678C528.609 36.7165 529.229 37.3322 529.229 38.2557C529.239 38.4603 529.205 38.6647 529.131 38.8557C529.056 39.0467 528.942 39.2202 528.796 39.3651C528.65 39.51 528.476 39.623 528.283 39.697C528.091 39.771 527.885 39.8043 527.678 39.7948V39.7948Z" fill="#323330"/>
<path d="M534.882 39.8119H532.538V38.7174H534.486C534.617 38.7131 534.741 38.6595 534.834 38.5674C534.927 38.4753 534.981 38.3516 534.985 38.2215C534.981 38.0913 534.927 37.9676 534.834 37.8755C534.741 37.7834 534.617 37.7298 534.486 37.7255H532.538V36.6652H534.83C534.963 36.6652 535.09 36.613 535.184 36.52C535.277 36.427 535.33 36.3008 535.33 36.1693C535.33 36.0378 535.277 35.9116 535.184 35.8186C535.09 35.7256 534.963 35.6734 534.83 35.6734H531.987C531.91 35.6727 531.833 35.6873 531.762 35.7162C531.69 35.7452 531.625 35.788 531.571 35.8421C531.516 35.8963 531.473 35.9606 531.444 36.0315C531.415 36.1023 531.4 36.1783 531.401 36.2548V40.2394C531.412 40.3912 531.481 40.5332 531.592 40.6376C531.704 40.7419 531.851 40.8012 532.004 40.8038H534.882C535.013 40.7995 535.138 40.7459 535.231 40.6538C535.323 40.5617 535.377 40.438 535.382 40.3078C535.377 40.1777 535.323 40.054 535.231 39.9619C535.138 39.8698 535.013 39.8162 534.882 39.8119V39.8119Z" fill="#323330"/>
<path d="M538.518 37.7599C537.622 37.5205 537.381 37.4179 537.381 37.11C537.381 36.8706 537.622 36.6483 538.036 36.6483C538.422 36.6637 538.797 36.7819 539.122 36.9903C539.208 37.0342 539.301 37.0631 539.397 37.0758C539.536 37.0801 539.671 37.0308 539.774 36.9383C539.877 36.8458 539.939 36.7173 539.949 36.5799C539.954 36.4886 539.934 36.3976 539.891 36.3164C539.849 36.2353 539.786 36.1668 539.708 36.1182C539.221 35.8049 538.65 35.6441 538.07 35.6564C537.019 35.6564 536.278 36.2721 536.278 37.1955C536.278 38.2045 536.933 38.5123 538.001 38.7347C538.863 38.9741 539.053 39.0767 539.053 39.3845C539.053 39.6923 538.777 39.8463 538.312 39.8463C537.831 39.834 537.367 39.6725 536.985 39.3845C536.89 39.3243 536.785 39.2836 536.674 39.2648C536.536 39.2605 536.401 39.3098 536.298 39.4023C536.195 39.4948 536.132 39.6233 536.123 39.7607C536.091 39.8532 536.09 39.9535 536.122 40.0463C536.153 40.139 536.214 40.219 536.295 40.2738C536.859 40.6848 537.543 40.9011 538.243 40.8894C539.38 40.8894 540.156 40.308 540.156 39.299C540.156 38.4097 539.57 38.0164 538.518 37.7599Z" fill="#323330"/>
<path d="M544.964 39.3502C544.838 39.3481 544.716 39.3905 544.619 39.4699C544.466 39.6085 544.287 39.7148 544.091 39.7824C543.896 39.85 543.688 39.8775 543.482 39.8632C542.586 39.8632 542 39.1278 542 38.2386C542 37.3493 542.62 36.6482 543.482 36.6482C543.86 36.6461 544.229 36.7661 544.533 36.9902C544.637 37.0558 544.755 37.0967 544.878 37.1099C544.95 37.1108 545.022 37.0973 545.09 37.0701C545.157 37.0429 545.218 37.0027 545.27 36.9516C545.321 36.9006 545.362 36.84 545.389 36.7731C545.416 36.7063 545.43 36.6348 545.429 36.5626C545.413 36.3832 545.326 36.2173 545.188 36.1009C544.757 35.7931 544.257 35.605 543.464 35.605C543.111 35.5943 542.76 35.6548 542.431 35.7829C542.102 35.9111 541.803 36.1041 541.552 36.3503C541.3 36.5966 541.102 36.8909 540.969 37.2155C540.835 37.5401 540.77 37.8881 540.776 38.2386C540.879 39.7264 542.017 40.8893 543.499 40.8893C544.171 40.9215 544.828 40.6877 545.326 40.2394C545.386 40.1931 545.435 40.1334 545.467 40.0651C545.5 39.9968 545.517 39.9218 545.515 39.8461C545.513 39.7772 545.497 39.7094 545.468 39.6469C545.439 39.5843 545.397 39.5282 545.346 39.4819C545.294 39.4356 545.234 39.4001 545.168 39.3774C545.103 39.3548 545.033 39.3455 544.964 39.3502V39.3502Z" fill="#323330"/>
<path d="M550.392 35.6221C550.315 35.6214 550.239 35.636 550.167 35.665C550.096 35.6939 550.031 35.7367 549.976 35.7909C549.922 35.845 549.879 35.9094 549.849 35.9802C549.82 36.0511 549.806 36.127 549.806 36.2035V37.7085H547.704V36.2035C547.704 36.0493 547.642 35.9014 547.532 35.7924C547.422 35.6834 547.273 35.6221 547.118 35.6221C546.962 35.6221 546.813 35.6834 546.703 35.7924C546.594 35.9014 546.532 36.0493 546.532 36.2035V40.2737C546.528 40.351 546.541 40.4282 546.569 40.5004C546.597 40.5726 546.64 40.6382 546.695 40.6929C546.75 40.7477 546.817 40.7904 546.889 40.8183C546.962 40.8462 547.04 40.8588 547.118 40.8551C547.195 40.8558 547.271 40.8412 547.343 40.8122C547.414 40.7833 547.479 40.7405 547.534 40.6863C547.588 40.6322 547.631 40.5678 547.661 40.497C547.69 40.4261 547.704 40.3502 547.704 40.2737V38.7345H549.806V40.2737C549.806 40.4279 549.868 40.5758 549.978 40.6848C550.088 40.7939 550.237 40.8551 550.392 40.8551C550.548 40.8551 550.697 40.7939 550.806 40.6848C550.916 40.5758 550.978 40.4279 550.978 40.2737V36.2035C550.979 36.127 550.964 36.0511 550.935 35.9802C550.906 35.9094 550.863 35.845 550.808 35.7909C550.753 35.7367 550.689 35.6939 550.617 35.665C550.546 35.636 550.469 35.6214 550.392 35.6221V35.6221Z" fill="#323330"/>
<path d="M554.649 35.6221C553.046 35.6221 551.874 36.8192 551.874 38.2557C551.879 38.6102 551.956 38.9603 552.098 39.2853C552.241 39.6104 552.448 39.904 552.706 40.1492C552.964 40.3943 553.269 40.5859 553.602 40.713C553.936 40.8401 554.292 40.9 554.649 40.8893C556.252 40.8893 557.372 39.6922 557.372 38.2557C557.372 36.785 556.234 35.6221 554.649 35.6221ZM554.632 39.8803C554.21 39.8656 553.811 39.687 553.521 39.3831C553.231 39.0792 553.073 38.6743 553.081 38.2557C553.081 37.3664 553.701 36.6653 554.632 36.6653C555.528 36.6653 556.183 37.4006 556.183 38.2899C556.183 39.1792 555.562 39.8803 554.632 39.8803V39.8803Z" fill="#323330"/>
<path d="M560.974 35.6221C559.371 35.6221 558.199 36.8192 558.199 38.2557C558.199 39.7264 559.319 40.8893 560.922 40.8893C562.525 40.8893 563.696 39.6922 563.696 38.2557C563.696 36.785 562.559 35.6221 560.974 35.6221ZM560.922 39.8803C560.499 39.8682 560.099 39.6905 559.808 39.386C559.517 39.0814 559.36 38.675 559.371 38.2557C559.371 37.3664 559.991 36.6653 560.922 36.6653C561.818 36.6653 562.473 37.4006 562.473 38.2899C562.473 39.1792 561.852 39.8803 560.922 39.8803V39.8803Z" fill="#323330"/>
<path d="M567.901 39.8119H565.799V36.2548C565.799 36.1006 565.737 35.9527 565.627 35.8436C565.517 35.7346 565.368 35.6733 565.213 35.6733C565.058 35.6733 564.909 35.7346 564.799 35.8436C564.689 35.9527 564.627 36.1006 564.627 36.2548V40.2394C564.64 40.3938 564.711 40.5377 564.826 40.6424C564.941 40.7471 565.091 40.8047 565.247 40.8038H567.901C568.033 40.7995 568.157 40.7459 568.25 40.6538C568.343 40.5617 568.397 40.438 568.401 40.3078C568.397 40.1776 568.343 40.054 568.25 39.9619C568.157 39.8698 568.033 39.8161 567.901 39.8119V39.8119Z" fill="#323330"/>
<path d="M513.816 75.4922H517.571C517.708 75.4922 517.84 75.4381 517.937 75.3419C518.034 75.2457 518.088 75.1152 518.088 74.9791V70.5738C518.071 69.9547 517.812 69.3664 517.364 68.9343C516.917 68.5023 516.318 68.2605 515.693 68.2605C515.069 68.2605 514.47 68.5023 514.022 68.9343C513.575 69.3664 513.316 69.9547 513.299 70.5738V74.9809C513.299 75.1166 513.354 75.2467 513.451 75.3425C513.548 75.4384 513.679 75.4922 513.816 75.4922V75.4922ZM514.333 70.5721C514.345 70.2224 514.494 69.8911 514.748 69.648C515.002 69.405 515.341 69.2692 515.693 69.2692C516.046 69.2692 516.385 69.405 516.639 69.648C516.893 69.8911 517.041 70.2224 517.054 70.5721V74.4661H514.333V70.5721Z" fill="#323330"/>
<path d="M521.256 75.4922H525.011C525.148 75.4922 525.279 75.4381 525.376 75.3419C525.473 75.2457 525.528 75.1152 525.528 74.9791V70.5738C525.511 69.9547 525.251 69.3664 524.804 68.9343C524.357 68.5023 523.757 68.2605 523.133 68.2605C522.509 68.2605 521.91 68.5023 521.462 68.9343C521.015 69.3664 520.755 69.9547 520.739 70.5738V74.9809C520.739 75.1166 520.794 75.2467 520.891 75.3425C520.988 75.4384 521.119 75.4922 521.256 75.4922V75.4922ZM521.773 70.5721C521.766 70.3908 521.797 70.21 521.862 70.0405C521.927 69.8711 522.027 69.7165 522.154 69.5859C522.281 69.4553 522.433 69.3515 522.601 69.2805C522.769 69.2096 522.95 69.1731 523.133 69.1731C523.316 69.1731 523.497 69.2096 523.665 69.2805C523.834 69.3515 523.986 69.4553 524.113 69.5859C524.24 69.7165 524.339 69.8711 524.405 70.0405C524.47 70.21 524.5 70.3908 524.494 70.5721V74.4661H521.773V70.5721Z" fill="#323330"/>
<path d="M513.816 84.3474H517.571C517.708 84.3474 517.84 84.2934 517.937 84.1972C518.034 84.1009 518.088 83.9704 518.088 83.8344V79.4274C518.071 78.8082 517.812 78.2199 517.364 77.7879C516.917 77.3558 516.318 77.114 515.693 77.114C515.069 77.114 514.47 77.3558 514.022 77.7879C513.575 78.2199 513.316 78.8082 513.299 79.4274V83.8344C513.299 83.9704 513.353 84.1009 513.45 84.1972C513.547 84.2934 513.679 84.3474 513.816 84.3474V84.3474ZM514.333 79.4274C514.345 79.0776 514.494 78.7463 514.748 78.5033C515.002 78.2602 515.341 78.1244 515.693 78.1244C516.046 78.1244 516.385 78.2602 516.639 78.5033C516.893 78.7463 517.041 79.0776 517.054 79.4274V83.3213H514.333V79.4274Z" fill="#323330"/>
<path d="M521.256 84.3474H525.011C525.148 84.3474 525.279 84.2934 525.376 84.1972C525.473 84.1009 525.528 83.9704 525.528 83.8344V79.4274C525.511 78.8082 525.251 78.2199 524.804 77.7879C524.357 77.3558 523.757 77.114 523.133 77.114C522.509 77.114 521.91 77.3558 521.462 77.7879C521.015 78.2199 520.755 78.8082 520.739 79.4274V83.8344C520.739 83.9704 520.793 84.1009 520.89 84.1972C520.987 84.2934 521.119 84.3474 521.256 84.3474V84.3474ZM521.773 79.4274C521.785 79.0776 521.934 78.7463 522.188 78.5033C522.442 78.2602 522.781 78.1244 523.133 78.1244C523.486 78.1244 523.825 78.2602 524.079 78.5033C524.332 78.7463 524.481 79.0776 524.494 79.4274V83.3213H521.773V79.4274Z" fill="#323330"/>
<path d="M513.816 93.1648H517.571C517.708 93.1648 517.84 93.1108 517.937 93.0145C518.034 92.9183 518.088 92.7878 518.088 92.6518V88.243C518.071 87.6238 517.812 87.0356 517.365 86.6035C516.917 86.1715 516.318 85.9297 515.694 85.9297C515.069 85.9297 514.47 86.1715 514.023 86.6035C513.575 87.0356 513.316 87.6238 513.299 88.243V92.6501C513.299 92.7176 513.312 92.7845 513.338 92.8469C513.364 92.9094 513.402 92.9661 513.45 93.0139C513.498 93.0618 513.555 93.0997 513.618 93.1256C513.681 93.1515 513.748 93.1648 513.816 93.1648ZM514.333 88.2447C514.346 87.895 514.494 87.5637 514.748 87.3206C515.002 87.0776 515.341 86.9418 515.694 86.9418C516.046 86.9418 516.385 87.0776 516.639 87.3206C516.893 87.5637 517.042 87.895 517.054 88.2447V92.1387H514.333V88.2447Z" fill="#323330"/>
<path d="M521.256 93.1648H525.011C525.148 93.1648 525.279 93.1108 525.376 93.0145C525.473 92.9183 525.528 92.7878 525.528 92.6518V88.243C525.511 87.6238 525.251 87.0356 524.804 86.6035C524.357 86.1715 523.757 85.9297 523.133 85.9297C522.509 85.9297 521.909 86.1715 521.462 86.6035C521.015 87.0356 520.755 87.6238 520.739 88.243V92.6501C520.738 92.7176 520.752 92.7845 520.777 92.8469C520.803 92.9094 520.841 92.9661 520.889 93.0139C520.937 93.0618 520.994 93.0997 521.057 93.1256C521.12 93.1515 521.187 93.1648 521.256 93.1648ZM521.773 88.2447C521.785 87.895 521.934 87.5637 522.188 87.3206C522.442 87.0776 522.78 86.9418 523.133 86.9418C523.486 86.9418 523.825 87.0776 524.079 87.3206C524.332 87.5637 524.481 87.895 524.494 88.2447V92.1387H521.773V88.2447Z" fill="#323330"/>
<path d="M556.993 75.4888H560.748C560.885 75.4888 561.016 75.4347 561.113 75.3385C561.21 75.2423 561.265 75.1118 561.265 74.9757V70.5687C561.248 69.9495 560.988 69.3613 560.541 68.9292C560.094 68.4971 559.494 68.2554 558.87 68.2554C558.246 68.2554 557.646 68.4971 557.199 68.9292C556.752 69.3613 556.492 69.9495 556.476 70.5687V74.9757C556.476 75.1118 556.53 75.2423 556.627 75.3385C556.724 75.4347 556.855 75.4888 556.993 75.4888V75.4888ZM557.51 70.5687C557.522 70.2189 557.671 69.8877 557.925 69.6446C558.179 69.4016 558.517 69.2658 558.87 69.2658C559.223 69.2658 559.562 69.4016 559.816 69.6446C560.069 69.8877 560.218 70.2189 560.231 70.5687V74.4627H557.51V70.5687Z" fill="#323330"/>
<path d="M564.429 75.4889H568.184C568.321 75.4889 568.453 75.4349 568.55 75.3387C568.647 75.2424 568.701 75.1119 568.701 74.9759V70.5689C568.701 69.9386 568.449 69.3342 568 68.8886C567.551 68.443 566.942 68.1926 566.306 68.1926C565.671 68.1926 565.062 68.443 564.613 68.8886C564.164 69.3342 563.912 69.9386 563.912 70.5689V74.9759C563.912 75.1119 563.966 75.2424 564.063 75.3387C564.16 75.4349 564.292 75.4889 564.429 75.4889V75.4889ZM564.946 70.5689C564.946 70.2108 565.089 69.8674 565.344 69.6142C565.6 69.361 565.946 69.2187 566.306 69.2187C566.667 69.2187 567.013 69.361 567.269 69.6142C567.524 69.8674 567.667 70.2108 567.667 70.5689V74.4628H564.946V70.5689Z" fill="#323330"/>
<path d="M556.993 84.3423H560.748C560.885 84.3423 561.016 84.2882 561.113 84.192C561.21 84.0958 561.265 83.9653 561.265 83.8293V79.4222C561.248 78.803 560.988 78.2148 560.541 77.7827C560.094 77.3507 559.494 77.1089 558.87 77.1089C558.246 77.1089 557.646 77.3507 557.199 77.7827C556.752 78.2148 556.492 78.803 556.476 79.4222V83.8293C556.476 83.9653 556.53 84.0958 556.627 84.192C556.724 84.2882 556.855 84.3423 556.993 84.3423V84.3423ZM557.51 79.4222C557.522 79.0725 557.671 78.7412 557.925 78.4981C558.179 78.2551 558.517 78.1193 558.87 78.1193C559.223 78.1193 559.562 78.2551 559.816 78.4981C560.069 78.7412 560.218 79.0725 560.231 79.4222V83.3162H557.51V79.4222Z" fill="#323330"/>
<path d="M564.429 84.3422H568.184C568.321 84.3422 568.453 84.2881 568.55 84.1919C568.647 84.0957 568.701 83.9652 568.701 83.8292V79.4221C568.701 78.7919 568.449 78.1875 568 77.7419C567.551 77.2963 566.942 77.0459 566.306 77.0459C565.671 77.0459 565.062 77.2963 564.613 77.7419C564.164 78.1875 563.912 78.7919 563.912 79.4221V83.8292C563.912 83.9652 563.966 84.0957 564.063 84.1919C564.16 84.2881 564.292 84.3422 564.429 84.3422V84.3422ZM564.946 79.4221C564.946 79.0641 565.089 78.7206 565.344 78.4674C565.6 78.2142 565.946 78.072 566.306 78.072C566.667 78.072 567.013 78.2142 567.269 78.4674C567.524 78.7206 567.667 79.0641 567.667 79.4221V83.3161H564.946V79.4221Z" fill="#323330"/>
<path d="M556.993 93.1597H560.748C560.885 93.1597 561.016 93.1057 561.113 93.0094C561.21 92.9132 561.265 92.7827 561.265 92.6467V88.243C561.248 87.6239 560.988 87.0356 560.541 86.6035C560.094 86.1715 559.494 85.9297 558.87 85.9297C558.246 85.9297 557.646 86.1715 557.199 86.6035C556.752 87.0356 556.492 87.6239 556.476 88.243V92.6501C556.476 92.7856 556.531 92.9152 556.628 93.0107C556.725 93.1061 556.856 93.1597 556.993 93.1597ZM557.51 88.243C557.522 87.8933 557.671 87.562 557.925 87.3189C558.179 87.0759 558.517 86.9401 558.87 86.9401C559.223 86.9401 559.562 87.0759 559.816 87.3189C560.069 87.562 560.218 87.8933 560.231 88.243V92.137H557.51V88.243Z" fill="#323330"/>
<path d="M564.429 93.1596H568.184C568.321 93.1596 568.453 93.1055 568.55 93.0093C568.647 92.9131 568.701 92.7826 568.701 92.6465V88.2429C568.701 87.6127 568.449 87.0083 568 86.5627C567.551 86.117 566.942 85.8667 566.306 85.8667C565.671 85.8667 565.062 86.117 564.613 86.5627C564.164 87.0083 563.912 87.6127 563.912 88.2429V92.65C563.913 92.7854 563.968 92.9151 564.064 93.0105C564.161 93.106 564.292 93.1596 564.429 93.1596ZM564.946 88.2395C564.946 87.8814 565.089 87.538 565.344 87.2848C565.6 87.0316 565.946 86.8894 566.306 86.8894C566.667 86.8894 567.013 87.0316 567.269 87.2848C567.524 87.538 567.667 87.8814 567.667 88.2395V92.1335H564.946V88.2395Z" fill="#323330"/>
<path d="M496.848 102.124C494.608 102.124 492.733 103.72 492.242 105.857C492.159 106.026 492.116 106.212 492.116 106.399V115.619C492.116 115.755 492.17 115.885 492.267 115.981C492.364 116.078 492.496 116.132 492.633 116.132H501.062C501.199 116.132 501.33 116.078 501.427 115.981C501.524 115.885 501.579 115.755 501.579 115.619V106.401C501.579 106.213 501.536 106.028 501.453 105.859C500.965 103.721 499.088 102.124 496.848 102.124ZM493.686 106.044C493.986 106.044 494.203 106.215 494.22 106.374H493.195C493.195 106.328 493.21 106.281 493.219 106.235C493.278 106.171 493.351 106.121 493.432 106.088C493.513 106.055 493.6 106.04 493.687 106.044H493.686ZM500.477 106.237C500.477 106.283 500.495 106.328 500.502 106.374H499.476C499.497 106.213 499.709 106.044 500.007 106.044C500.095 106.04 500.183 106.055 500.265 106.088C500.346 106.122 500.419 106.172 500.479 106.237H500.477ZM493.153 107.396H494.227V109.247H493.153V107.396ZM495.261 107.396H496.331V109.247H495.257L495.261 107.396ZM497.365 107.396H498.439V109.247H497.365V107.396ZM499.473 107.396H500.546V109.247H499.473V107.396ZM497.365 106.37C497.386 106.21 497.598 106.04 497.896 106.04C498.194 106.04 498.413 106.211 498.43 106.37H497.365ZM495.257 106.37C495.278 106.21 495.49 106.04 495.788 106.04C496.086 106.04 496.305 106.211 496.322 106.37H495.257ZM493.146 110.273H494.22V112.123H493.146V110.273ZM495.254 110.273H496.331V112.123H495.257L495.254 110.273ZM497.362 110.273H498.435V112.123H497.365L497.362 110.273ZM499.469 110.273H500.543V112.123H499.469V110.273ZM496.848 103.15C497.497 103.155 498.133 103.331 498.691 103.659C499.249 103.988 499.71 104.457 500.026 105.019H500.007C499.625 105.017 499.253 105.144 498.954 105.38C498.653 105.147 498.282 105.02 497.9 105.02C497.518 105.02 497.147 105.147 496.846 105.38C496.545 105.147 496.174 105.02 495.792 105.02C495.411 105.02 495.04 105.147 494.739 105.38C494.439 105.144 494.067 105.017 493.684 105.019H493.667C493.983 104.457 494.444 103.987 495.003 103.659C495.562 103.33 496.199 103.155 496.848 103.15V103.15ZM493.15 113.154H494.223V115.107H493.15V113.154ZM495.257 113.154H496.331V115.107H495.257V113.154ZM497.365 113.154H498.439V115.107H497.365V113.154ZM499.473 115.107V113.154H500.546V115.107H499.473Z" fill="#323330"/>
<path d="M585.149 102.124C582.908 102.124 581.035 103.721 580.544 105.859C580.461 106.028 580.418 106.213 580.418 106.401V115.62C580.418 115.756 580.472 115.887 580.569 115.983C580.666 116.079 580.798 116.133 580.935 116.133H589.364C589.501 116.133 589.632 116.079 589.729 115.983C589.826 115.887 589.881 115.756 589.881 115.62V106.401C589.881 106.213 589.838 106.028 589.755 105.859C589.264 103.721 587.387 102.124 585.149 102.124ZM581.99 106.044C582.29 106.044 582.507 106.215 582.52 106.374H581.497C581.497 106.328 581.512 106.281 581.521 106.237C581.58 106.173 581.653 106.122 581.735 106.089C581.816 106.055 581.904 106.04 581.991 106.044H581.99ZM588.778 106.235C588.787 106.281 588.795 106.326 588.802 106.374H587.778C587.799 106.213 588.011 106.044 588.313 106.044C588.4 106.04 588.487 106.056 588.568 106.089C588.648 106.123 588.721 106.173 588.78 106.237L588.778 106.235ZM581.454 107.396H582.527V109.247H581.454V107.396ZM583.561 107.396H584.635V109.247H583.561V107.396ZM585.669 107.396H586.743V109.247H585.669V107.396ZM587.777 107.396H588.85V109.247H587.777V107.396ZM585.674 106.37C585.695 106.21 585.907 106.04 586.208 106.04C586.51 106.04 586.725 106.211 586.739 106.37H585.674ZM583.567 106.37C583.587 106.21 583.799 106.04 584.101 106.04C584.402 106.04 584.618 106.211 584.632 106.37H583.567ZM581.455 110.273H582.529V112.123H581.455V110.273ZM583.563 110.273H584.637V112.123H583.563V110.273ZM585.671 110.273H586.744V112.123H585.671V110.273ZM587.778 110.273H588.852V112.123H587.778V110.273ZM585.154 103.147C585.803 103.152 586.439 103.328 586.997 103.656C587.556 103.984 588.017 104.453 588.333 105.016H588.316C587.933 105.013 587.561 105.141 587.261 105.377C586.96 105.143 586.589 105.017 586.208 105.017C585.826 105.017 585.455 105.143 585.154 105.377C584.853 105.143 584.482 105.017 584.1 105.017C583.718 105.017 583.347 105.143 583.046 105.377C582.747 105.141 582.375 105.013 581.993 105.016H581.974C582.29 104.455 582.751 103.986 583.308 103.659C583.866 103.331 584.501 103.156 585.149 103.15L585.154 103.147ZM581.457 113.151H582.531V115.104H581.457V113.151ZM583.565 113.151H584.638V115.104H583.565V113.151ZM585.672 113.151H586.746V115.104H585.672V113.151ZM587.78 115.104V113.154H588.854V115.107L587.78 115.104Z" fill="#323330"/>
<path d="M544.681 90.4661C544.68 90.0683 544.612 89.6735 544.479 89.2981C544.47 89.2602 544.456 89.2234 544.438 89.1886C544.256 88.7181 543.976 88.2908 543.617 87.9344C543.258 87.5779 542.827 87.3003 542.353 87.1194C542.318 87.1016 542.281 87.0878 542.243 87.0783C541.356 86.7716 540.385 86.8206 539.534 87.2149C538.684 87.6091 538.023 88.3174 537.691 89.1886C537.673 89.2251 537.659 89.2635 537.65 89.3032C537.339 90.19 537.392 91.1626 537.799 92.0104C538.205 92.8583 538.932 93.5132 539.821 93.8334C540.598 94.1201 541.452 94.1279 542.234 93.8556C542.272 93.8461 542.309 93.8324 542.344 93.8146C542.826 93.6307 543.262 93.3471 543.624 92.9826C543.987 92.6181 544.266 92.1811 544.445 91.7008V91.7008C544.597 91.3064 544.677 90.8883 544.681 90.4661V90.4661ZM538.477 90.4661C538.477 90.285 538.497 90.1044 538.536 89.9274H539.499V90.9877H538.53C538.497 90.8159 538.481 90.6411 538.484 90.4661H538.477ZM540.533 89.9274H541.601V90.9877H540.533V89.9274ZM542.635 89.9274H543.582C543.657 90.2769 543.657 90.6382 543.582 90.9877H542.632L542.635 89.9274ZM543.097 88.9013H542.635V88.443C542.811 88.576 542.968 88.7306 543.104 88.903L543.097 88.9013ZM541.601 87.9625V88.9013H540.533V87.959C540.885 87.8845 541.249 87.8845 541.601 87.959V87.9625ZM539.499 88.4293V88.9013H539.02C539.16 88.7241 539.324 88.566 539.506 88.431L539.499 88.4293ZM539.006 92.0206H539.499V92.5097C539.315 92.3673 539.152 92.2011 539.013 92.0155L539.006 92.0206ZM540.533 92.9817V92.0206H541.601V92.9766C541.249 93.0511 540.885 93.0511 540.533 92.9766V92.9817ZM542.635 92.496V92.0206H543.111C542.976 92.1966 542.819 92.3547 542.644 92.4909L542.635 92.496Z" fill="#323330"/>
<path d="M524.733 136.147C525.583 135.925 525.807 135.976 525.94 136.192C526.072 136.407 525.94 136.725 525.536 136.948C525.132 137.184 524.659 137.278 524.194 137.215C524.082 137.207 523.971 137.239 523.88 137.303C523.77 137.381 523.692 137.496 523.66 137.627C523.628 137.758 523.645 137.896 523.708 138.015C523.745 138.091 523.802 138.156 523.873 138.203C523.944 138.249 524.026 138.277 524.111 138.282C524.793 138.348 525.48 138.208 526.081 137.881C527.022 137.348 527.379 136.46 526.888 135.616C526.439 134.86 525.769 134.86 524.739 135.126C523.889 135.349 523.665 135.349 523.486 135.082C523.396 134.86 523.486 134.593 523.844 134.371C524.176 134.204 524.546 134.127 524.918 134.148C525.013 134.139 525.105 134.109 525.187 134.059C525.297 133.981 525.375 133.866 525.407 133.736C525.438 133.605 525.421 133.467 525.359 133.348C525.309 133.273 525.242 133.211 525.165 133.165C525.088 133.119 525.001 133.09 524.911 133.081C524.345 133.044 523.781 133.184 523.3 133.481C522.405 134.015 522.093 134.858 522.538 135.658C523.032 136.501 523.749 136.414 524.733 136.147Z" fill="#323330"/>
<path d="M553.749 136.843C553.809 136.887 553.877 136.917 553.95 136.932C554.022 136.947 554.097 136.946 554.169 136.93C554.242 136.914 554.309 136.883 554.368 136.838C554.427 136.794 554.476 136.737 554.511 136.672L555.764 134.54L555.853 136.272C555.898 136.494 555.943 136.672 556.122 136.761C556.201 136.816 556.295 136.845 556.391 136.845C556.487 136.845 556.581 136.816 556.66 136.761L558.226 135.961L556.974 138.093C556.93 138.153 556.899 138.221 556.884 138.292C556.869 138.364 556.87 138.439 556.886 138.51C556.902 138.582 556.934 138.649 556.979 138.708C557.024 138.766 557.081 138.815 557.146 138.849C557.277 138.917 557.43 138.931 557.572 138.89C557.714 138.849 557.834 138.754 557.908 138.627L559.922 135.207C559.99 135.076 560.005 134.925 559.963 134.784C559.921 134.643 559.826 134.524 559.698 134.451L559.609 134.406C559.518 134.362 559.418 134.339 559.317 134.339C559.216 134.339 559.117 134.362 559.026 134.406L556.786 135.603L556.696 133.072C556.704 132.974 556.682 132.875 556.634 132.789C556.587 132.702 556.515 132.631 556.427 132.583L556.338 132.539C556.206 132.471 556.054 132.457 555.912 132.498C555.77 132.54 555.65 132.634 555.576 132.761L553.57 136.127C553.528 136.184 553.499 136.249 553.485 136.318C553.472 136.387 553.473 136.458 553.49 136.527C553.508 136.595 553.54 136.659 553.584 136.714C553.629 136.768 553.685 136.813 553.749 136.843V136.843Z" fill="#323330"/>
</g>
<defs>
<clipPath id="clip0">
<rect width="150" height="171" fill="white" transform="translate(466)"/>
</clipPath>
</defs>
</svg>